<?xml version="1.0" encoding="UTF-8" standalone="no"?>
<!DOCTYPE svg PUBLIC "-//W3C//DTD SVG 1.1//EN"
 "http://www.w3.org/Graphics/SVG/1.1/DTD/svg11.dtd">
<!-- Generated by graphviz version 2.36.0 (20140111.2315)
 -->
<!-- Title: G Pages: 1 -->
<svg width="1845pt" height="902pt"
 viewBox="0.00 0.00 1845.00 902.00" xmlns="http://www.w3.org/2000/svg" xmlns:xlink="http://www.w3.org/1999/xlink">
<g id="graph0" class="graph" transform="scale(1 1) rotate(0) translate(4 898)">
<title>G</title>
<polygon fill="white" stroke="none" points="-4,4 -4,-898 1841,-898 1841,4 -4,4"/>
<!-- Start DAQ/RA (only call for last active headstage) -->
<g id="node1" class="node"><title>Start DAQ/RA (only call for last active headstage)</title>
<ellipse fill="#eff3ff" stroke="#bdd7e7" cx="875" cy="-876" rx="216.497" ry="18"/>
<text text-anchor="middle" x="875" y="-872.6" font-family="serif" font-size="13.00" fill="#2171b5">Start DAQ/RA (only call for last active headstage)</text>
</g>
<!-- Post DAQ Event -->
<g id="node2" class="node"><title>Post DAQ Event</title>
<ellipse fill="#eff3ff" stroke="#bdd7e7" cx="404" cy="-802" rx="75.2544" ry="18"/>
<text text-anchor="middle" x="404" y="-798.6" font-family="serif" font-size="13.00" fill="#2171b5">Post DAQ Event</text>
</g>
<!-- Start DAQ/RA (only call for last active headstage)&#45;&gt;Post DAQ Event -->
<!-- Wildcard edge -->
<g id="edge2" class="edge"><title>Start DAQ/RA (only call for last active headstage)&#45;&gt;Post DAQ Event</title>
<path fill="none" stroke="#9ecae1" d="M776.55,-859.95C686.681,-846.212 555.973,-826.232 475.66,-813.954"/>
<polygon fill="#9ecae1" stroke="#9ecae1" points="476.053,-810.474 465.639,-812.422 474.995,-817.393 476.053,-810.474"/>
</g>
<!-- Prepare DAQ -->
<g id="node3" class="node"><title>Prepare DAQ</title>
<ellipse fill="#eff3ff" stroke="#bdd7e7" cx="690" cy="-802" rx="63.2008" ry="18"/>
<text text-anchor="middle" x="690" y="-798.6" font-family="serif" font-size="13.00" fill="#2171b5">Prepare DAQ</text>
</g>
<!-- Start DAQ/RA (only call for last active headstage)&#45;&gt;Prepare DAQ -->
<!-- Wildcard edge -->
<g id="edge4" class="edge"><title>Start DAQ/RA (only call for last active headstage)&#45;&gt;Prepare DAQ</title>
<path fill="none" stroke="#9ecae1" d="M832.092,-858.301C803.131,-847.029 764.96,-832.174 735.475,-820.698"/>
<polygon fill="#9ecae1" stroke="#9ecae1" points="736.423,-817.312 725.834,-816.946 733.884,-823.835 736.423,-817.312"/>
</g>
<!-- Pre Set Event -->
<g id="node4" class="node"><title>Pre Set Event</title>
<ellipse fill="#eff3ff" stroke="#bdd7e7" cx="875" cy="-802" rx="66.4368" ry="18"/>
<text text-anchor="middle" x="875" y="-798.6" font-family="serif" font-size="13.00" fill="#2171b5">Pre Set Event</text>
</g>
<!-- Start DAQ/RA (only call for last active headstage)&#45;&gt;Pre Set Event -->
<!-- Wildcard edge -->
<g id="edge3" class="edge"><title>Start DAQ/RA (only call for last active headstage)&#45;&gt;Pre Set Event</title>
<path fill="none" stroke="#9ecae1" d="M875,-857.937C875,-849.807 875,-839.876 875,-830.705"/>
<polygon fill="#9ecae1" stroke="#9ecae1" points="878.5,-830.441 875,-820.441 871.5,-830.441 878.5,-830.441"/>
</g>
<!-- Post Sweep Event -->
<g id="node5" class="node"><title>Post Sweep Event</title>
<ellipse fill="#eff3ff" stroke="#bdd7e7" cx="1084" cy="-802" rx="84.0194" ry="18"/>
<text text-anchor="middle" x="1084" y="-798.6" font-family="serif" font-size="13.00" fill="#2171b5">Post Sweep Event</text>
</g>
<!-- Start DAQ/RA (only call for last active headstage)&#45;&gt;Post Sweep Event -->
<!-- Wildcard edge -->
<g id="edge1" class="edge"><title>Start DAQ/RA (only call for last active headstage)&#45;&gt;Post Sweep Event</title>
<path fill="none" stroke="#9ecae1" d="M923.211,-858.391C955.799,-847.165 998.795,-832.353 1032.13,-820.871"/>
<polygon fill="#9ecae1" stroke="#9ecae1" points="1033.38,-824.14 1041.69,-817.574 1031.1,-817.522 1033.38,-824.14"/>
</g>
<!-- Post Set Event -->
<g id="node26" class="node"><title>Post Set Event</title>
<ellipse fill="#eff3ff" stroke="#bdd7e7" cx="1605" cy="-802" rx="70.6212" ry="18"/>
<text text-anchor="middle" x="1605" y="-798.6" font-family="serif" font-size="13.00" fill="#2171b5">Post Set Event</text>
</g>
<!-- Start DAQ/RA (only call for last active headstage)&#45;&gt;Post Set Event -->
<!-- Wildcard edge -->
<g id="edge26" class="edge"><title>Start DAQ/RA (only call for last active headstage)&#45;&gt;Post Set Event</title>
<path fill="none" stroke="#9ecae1" d="M1008.89,-861.794C1162.23,-846.671 1408.01,-822.429 1530.53,-810.345"/>
<polygon fill="#9ecae1" stroke="#9ecae1" points="1530.96,-813.82 1540.57,-809.355 1530.27,-806.854 1530.96,-813.82"/>
</g>
<!-- Read active headstages from labnotebook\nand turn them all on again -->
<g id="node24" class="node"><title>Read active headstages from labnotebook\nand turn them all on again</title>
<ellipse fill="#eff3ff" stroke="#bdd7e7" cx="205" cy="-710" rx="205.153" ry="25.4118"/>
<text text-anchor="middle" x="205" y="-713.6" font-family="serif" font-size="13.00" fill="#2171b5">Read active headstages from labnotebook</text>
<text text-anchor="middle" x="205" y="-699.6" font-family="serif" font-size="13.00" fill="#2171b5">and turn them all on again</text>
</g>
<!-- Post DAQ Event&#45;&gt;Read active headstages from labnotebook\nand turn them all on again -->
<!-- Wildcard edge -->
<g id="edge14" class="edge"><title>Post DAQ Event&#45;&gt;Read active headstages from labnotebook\nand turn them all on again</title>
<path fill="none" stroke="#9ecae1" d="M370.242,-785.733C341.963,-772.943 300.859,-754.353 266.722,-738.915"/>
<polygon fill="#9ecae1" stroke="#9ecae1" points="267.849,-735.583 257.295,-734.651 264.964,-741.961 267.849,-735.583"/>
</g>
<!-- Enable &quot;Multidevice DAQ&quot; -->
<g id="node6" class="node"><title>Enable &quot;Multidevice DAQ&quot;</title>
<ellipse fill="#eff3ff" stroke="#bdd7e7" cx="548" cy="-710" rx="118.134" ry="18"/>
<text text-anchor="middle" x="548" y="-706.6" font-family="serif" font-size="13.00" fill="#2171b5">Enable &quot;Multidevice DAQ&quot;</text>
</g>
<!-- Prepare DAQ&#45;&gt;Enable &quot;Multidevice DAQ&quot; -->
<!-- Wildcard edge -->
<g id="edge5" class="edge"><title>Prepare DAQ&#45;&gt;Enable &quot;Multidevice DAQ&quot;</title>
<path fill="none" stroke="#9ecae1" d="M665.265,-785.323C642.52,-770.907 608.554,-749.379 583.023,-733.198"/>
<polygon fill="#9ecae1" stroke="#9ecae1" points="584.696,-730.115 574.376,-727.717 580.949,-736.027 584.696,-730.115"/>
</g>
<!-- Enable &quot;Autobias&quot; -->
<g id="node13" class="node"><title>Enable &quot;Autobias&quot;</title>
<ellipse fill="#eff3ff" stroke="#bdd7e7" cx="770" cy="-710" rx="84.9154" ry="18"/>
<text text-anchor="middle" x="770" y="-706.6" font-family="serif" font-size="13.00" fill="#2171b5">Enable &quot;Autobias&quot;</text>
</g>
<!-- Pre Set Event&#45;&gt;Enable &quot;Autobias&quot; -->
<!-- Wildcard edge -->
<g id="edge17" class="edge"><title>Pre Set Event&#45;&gt;Enable &quot;Autobias&quot;</title>
<path fill="none" stroke="#9ecae1" d="M855.741,-784.493C839.415,-770.498 815.802,-750.259 797.488,-734.562"/>
<polygon fill="#9ecae1" stroke="#9ecae1" points="799.362,-731.558 789.492,-727.708 794.807,-736.873 799.362,-731.558"/>
</g>
<!-- Set next DAScale value,\nuse the analysis parameter values as offset\nonto the earlier FastRheoEstimate guess -->
<g id="node28" class="node"><title>Set next DAScale value,\nuse the analysis parameter values as offset\nonto the earlier FastRheoEstimate guess</title>
<ellipse fill="#eff3ff" stroke="#bdd7e7" cx="1084" cy="-710" rx="210.577" ry="35.2113"/>
<text text-anchor="middle" x="1084" y="-720.6" font-family="serif" font-size="13.00" fill="#2171b5">Set next DAScale value,</text>
<text text-anchor="middle" x="1084" y="-706.6" font-family="serif" font-size="13.00" fill="#2171b5">use the analysis parameter values as offset</text>
<text text-anchor="middle" x="1084" y="-692.6" font-family="serif" font-size="13.00" fill="#2171b5">onto the earlier FastRheoEstimate guess</text>
</g>
<!-- Pre Set Event&#45;&gt;Set next DAScale value,\nuse the analysis parameter values as offset\nonto the earlier FastRheoEstimate guess -->
<!-- Wildcard edge -->
<g id="edge28" class="edge"><title>Pre Set Event&#45;&gt;Set next DAScale value,\nuse the analysis parameter values as offset\nonto the earlier FastRheoEstimate guess</title>
<path fill="none" stroke="#9ecae1" d="M909.045,-786.34C933.679,-775.731 968.092,-760.912 999.886,-747.221"/>
<polygon fill="#9ecae1" stroke="#9ecae1" points="1001.41,-750.375 1009.21,-743.205 998.644,-743.946 1001.41,-750.375"/>
</g>
<!-- Mark all active headstages as passed -->
<g id="node22" class="node"><title>Mark all active headstages as passed</title>
<ellipse fill="#eff3ff" stroke="#bdd7e7" cx="1477" cy="-710" rx="164.354" ry="18"/>
<text text-anchor="middle" x="1477" y="-706.6" font-family="serif" font-size="13.00" fill="#2171b5">Mark all active headstages as passed</text>
</g>
<!-- Post Sweep Event&#45;&gt;Mark all active headstages as passed -->
<!-- Wildcard edge -->
<g id="edge11" class="edge"><title>Post Sweep Event&#45;&gt;Mark all active headstages as passed</title>
<path fill="none" stroke="#9ecae1" d="M1139.06,-788.391C1206.89,-772.858 1322.55,-746.371 1399.37,-728.778"/>
<polygon fill="#9ecae1" stroke="#9ecae1" points="1400.51,-732.107 1409.48,-726.463 1398.95,-725.284 1400.51,-732.107"/>
</g>
<!-- Post Sweep Event&#45;&gt;Set next DAScale value,\nuse the analysis parameter values as offset\nonto the earlier FastRheoEstimate guess -->
<!-- Wildcard edge -->
<g id="edge29" class="edge"><title>Post Sweep Event&#45;&gt;Set next DAScale value,\nuse the analysis parameter values as offset\nonto the earlier FastRheoEstimate guess</title>
<path fill="none" stroke="#9ecae1" d="M1084,-783.647C1084,-775.61 1084,-765.652 1084,-755.712"/>
<polygon fill="#9ecae1" stroke="#9ecae1" points="1087.5,-755.442 1084,-745.443 1080.5,-755.443 1087.5,-755.442"/>
</g>
<!-- Enable &quot;Repeated Acquisition&quot; -->
<g id="node8" class="node"><title>Enable &quot;Repeated Acquisition&quot;</title>
<ellipse fill="#eff3ff" stroke="#bdd7e7" cx="525" cy="-618" rx="137.558" ry="18"/>
<text text-anchor="middle" x="525" y="-614.6" font-family="serif" font-size="13.00" fill="#2171b5">Enable &quot;Repeated Acquisition&quot;</text>
</g>
<!-- Enable &quot;Multidevice DAQ&quot;&#45;&gt;Enable &quot;Repeated Acquisition&quot; -->
<!-- Wildcard edge -->
<g id="edge6" class="edge"><title>Enable &quot;Multidevice DAQ&quot;&#45;&gt;Enable &quot;Repeated Acquisition&quot;</title>
<path fill="none" stroke="#9ecae1" d="M543.565,-691.647C540.267,-678.741 535.703,-660.88 531.925,-646.099"/>
<polygon fill="#9ecae1" stroke="#9ecae1" points="535.21,-644.816 529.343,-635.994 528.428,-646.55 535.21,-644.816"/>
</g>
<!-- Enable &quot;dDAQ&quot; -->
<g id="node7" class="node"><title>Enable &quot;dDAQ&quot;</title>
<ellipse fill="#eff3ff" stroke="#bdd7e7" cx="998" cy="-396" rx="72.4638" ry="18"/>
<text text-anchor="middle" x="998" y="-392.6" font-family="serif" font-size="13.00" fill="#2171b5">Enable &quot;dDAQ&quot;</text>
</g>
<!-- Look for an existing and passing FastRheoEstimate sweep\n within a passing set and\n a pulse duration of more than 500ms -->
<g id="node20" class="node"><title>Look for an existing and passing FastRheoEstimate sweep\n within a passing set and\n a pulse duration of more than 500ms</title>
<ellipse fill="#eff3ff" stroke="#bdd7e7" cx="1001" cy="-304" rx="281.143" ry="35.2113"/>
<text text-anchor="middle" x="1001" y="-314.6" font-family="serif" font-size="13.00" fill="#2171b5">Look for an existing and passing FastRheoEstimate sweep</text>
<text text-anchor="middle" x="1001" y="-300.6" font-family="serif" font-size="13.00" fill="#2171b5"> within a passing set and</text>
<text text-anchor="middle" x="1001" y="-286.6" font-family="serif" font-size="13.00" fill="#2171b5"> a pulse duration of more than 500ms</text>
</g>
<!-- Enable &quot;dDAQ&quot;&#45;&gt;Look for an existing and passing FastRheoEstimate sweep\n within a passing set and\n a pulse duration of more than 500ms -->
<!-- Wildcard edge -->
<g id="edge22" class="edge"><title>Enable &quot;dDAQ&quot;&#45;&gt;Look for an existing and passing FastRheoEstimate sweep\n within a passing set and\n a pulse duration of more than 500ms</title>
<path fill="none" stroke="#9ecae1" d="M998.578,-377.647C998.846,-369.61 999.178,-359.652 999.51,-349.712"/>
<polygon fill="#9ecae1" stroke="#9ecae1" points="1003.02,-349.554 999.852,-339.443 996.021,-349.32 1003.02,-349.554"/>
</g>
<!-- Force Sampling Multiplier to 1 -->
<g id="node14" class="node"><title>Force Sampling Multiplier to 1</title>
<ellipse fill="#eff3ff" stroke="#bdd7e7" cx="524" cy="-544" rx="137.558" ry="18"/>
<text text-anchor="middle" x="524" y="-540.6" font-family="serif" font-size="13.00" fill="#2171b5">Force Sampling Multiplier to 1</text>
</g>
<!-- Enable &quot;Repeated Acquisition&quot;&#45;&gt;Force Sampling Multiplier to 1 -->
<!-- Wildcard edge -->
<g id="edge7" class="edge"><title>Enable &quot;Repeated Acquisition&quot;&#45;&gt;Force Sampling Multiplier to 1</title>
<path fill="none" stroke="#9ecae1" d="M524.763,-599.937C524.65,-591.807 524.512,-581.876 524.385,-572.705"/>
<polygon fill="#9ecae1" stroke="#9ecae1" points="527.881,-572.391 524.242,-562.441 520.882,-572.488 527.881,-572.391"/>
</g>
<!-- Check if no TTL channels are active -->
<g id="node9" class="node"><title>Check if no TTL channels are active</title>
<ellipse fill="#eff3ff" stroke="#bdd7e7" cx="490" cy="-470" rx="159.274" ry="18"/>
<text text-anchor="middle" x="490" y="-466.6" font-family="serif" font-size="13.00" fill="#2171b5">Check if no TTL channels are active</text>
</g>
<!-- Store active headstages in labnotebook -->
<g id="node18" class="node"><title>Store active headstages in labnotebook</title>
<ellipse fill="#eff3ff" stroke="#bdd7e7" cx="433" cy="-396" rx="173.566" ry="18"/>
<text text-anchor="middle" x="433" y="-392.6" font-family="serif" font-size="13.00" fill="#2171b5">Store active headstages in labnotebook</text>
</g>
<!-- Check if no TTL channels are active&#45;&gt;Store active headstages in labnotebook -->
<!-- Wildcard edge -->
<g id="edge9" class="edge"><title>Check if no TTL channels are active&#45;&gt;Store active headstages in labnotebook</title>
<path fill="none" stroke="#9ecae1" d="M476.492,-451.937C469.496,-443.1 460.816,-432.135 453.054,-422.331"/>
<polygon fill="#9ecae1" stroke="#9ecae1" points="455.758,-420.109 446.807,-414.441 450.27,-424.454 455.758,-420.109"/>
</g>
<!-- Enable &quot;TP during ITI&quot; -->
<g id="node10" class="node"><title>Enable &quot;TP during ITI&quot;</title>
<ellipse fill="#eff3ff" stroke="#bdd7e7" cx="836" cy="-544" rx="103.392" ry="18"/>
<text text-anchor="middle" x="836" y="-540.6" font-family="serif" font-size="13.00" fill="#2171b5">Enable &quot;TP during ITI&quot;</text>
</g>
<!-- Valid Autobias voltage (finite and non&#45;zero) -->
<g id="node11" class="node"><title>Valid Autobias voltage (finite and non&#45;zero)</title>
<ellipse fill="#eff3ff" stroke="#bdd7e7" cx="959" cy="-470" rx="188.307" ry="18"/>
<text text-anchor="middle" x="959" y="-466.6" font-family="serif" font-size="13.00" fill="#2171b5">Valid Autobias voltage (finite and non&#45;zero)</text>
</g>
<!-- Enable &quot;TP during ITI&quot;&#45;&gt;Valid Autobias voltage (finite and non&#45;zero) -->
<!-- Wildcard edge -->
<g id="edge20" class="edge"><title>Enable &quot;TP during ITI&quot;&#45;&gt;Valid Autobias voltage (finite and non&#45;zero)</title>
<path fill="none" stroke="#9ecae1" d="M863.911,-526.662C880.844,-516.75 902.678,-503.969 921.153,-493.154"/>
<polygon fill="#9ecae1" stroke="#9ecae1" points="923.054,-496.097 929.916,-488.025 919.518,-490.056 923.054,-496.097"/>
</g>
<!-- Valid Autobias voltage (finite and non&#45;zero)&#45;&gt;Enable &quot;dDAQ&quot; -->
<!-- Wildcard edge -->
<g id="edge21" class="edge"><title>Valid Autobias voltage (finite and non&#45;zero)&#45;&gt;Enable &quot;dDAQ&quot;</title>
<path fill="none" stroke="#9ecae1" d="M968.242,-451.937C972.954,-443.239 978.782,-432.48 984.028,-422.795"/>
<polygon fill="#9ecae1" stroke="#9ecae1" points="987.139,-424.4 988.824,-413.941 980.983,-421.066 987.139,-424.4"/>
</g>
<!-- Enable &quot;Insert TP&quot; -->
<g id="node12" class="node"><title>Enable &quot;Insert TP&quot;</title>
<ellipse fill="#eff3ff" stroke="#bdd7e7" cx="833" cy="-618" rx="86.3093" ry="18"/>
<text text-anchor="middle" x="833" y="-614.6" font-family="serif" font-size="13.00" fill="#2171b5">Enable &quot;Insert TP&quot;</text>
</g>
<!-- Enable &quot;Insert TP&quot;&#45;&gt;Enable &quot;TP during ITI&quot; -->
<!-- Wildcard edge -->
<g id="edge19" class="edge"><title>Enable &quot;Insert TP&quot;&#45;&gt;Enable &quot;TP during ITI&quot;</title>
<path fill="none" stroke="#9ecae1" d="M833.711,-599.937C834.05,-591.807 834.463,-581.876 834.846,-572.705"/>
<polygon fill="#9ecae1" stroke="#9ecae1" points="838.354,-572.578 835.273,-562.441 831.36,-572.286 838.354,-572.578"/>
</g>
<!-- Enable &quot;Autobias&quot;&#45;&gt;Enable &quot;Insert TP&quot; -->
<!-- Wildcard edge -->
<g id="edge18" class="edge"><title>Enable &quot;Autobias&quot;&#45;&gt;Enable &quot;Insert TP&quot;</title>
<path fill="none" stroke="#9ecae1" d="M781.85,-692.072C791.265,-678.621 804.581,-659.599 815.266,-644.335"/>
<polygon fill="#9ecae1" stroke="#9ecae1" points="818.336,-646.052 821.203,-635.852 812.601,-642.038 818.336,-646.052"/>
</g>
<!-- Force Sampling Multiplier to 1&#45;&gt;Check if no TTL channels are active -->
<!-- Wildcard edge -->
<g id="edge8" class="edge"><title>Force Sampling Multiplier to 1&#45;&gt;Check if no TTL channels are active</title>
<path fill="none" stroke="#9ecae1" d="M515.942,-525.937C511.936,-517.454 507.004,-507.009 502.52,-497.513"/>
<polygon fill="#9ecae1" stroke="#9ecae1" points="505.671,-495.989 498.236,-488.441 499.341,-498.978 505.671,-495.989"/>
</g>
<!-- All checks passed -->
<g id="node15" class="node"><title>All checks passed</title>
<ellipse fill="#eff3ff" stroke="#bdd7e7" cx="538" cy="-102" rx="84.0194" ry="18"/>
<text text-anchor="middle" x="538" y="-98.6" font-family="serif" font-size="13.00" fill="#2171b5">All checks passed</text>
</g>
<!-- Abort -->
<g id="node17" class="node"><title>Abort</title>
<ellipse fill="#eff3ff" stroke="#bdd7e7" cx="627" cy="-18" rx="33.2184" ry="18"/>
<text text-anchor="middle" x="627" y="-14.6" font-family="serif" font-size="13.00" fill="#2171b5">Abort</text>
</g>
<!-- All checks passed&#45;&gt;Abort -->
<!-- Wildcard edge -->
<g id="edge12" class="edge"><title>All checks passed&#45;&gt;Abort</title>
<path fill="none" stroke="#9ecae1" d="M556.01,-84.4061C569.679,-71.813 588.589,-54.3901 603.455,-40.6928"/>
<polygon fill="#9ecae1" stroke="#9ecae1" points="605.829,-43.265 610.812,-33.915 601.086,-38.1169 605.829,-43.265"/>
<text text-anchor="middle" x="595" y="-57.5" font-family="sans-serif" font-size="10.00" fill="#3182bd">No</text>
</g>
<!-- Check if there is at least\none active IC headstage -->
<g id="node16" class="node"><title>Check if there is at least\none active IC headstage</title>
<ellipse fill="#eff3ff" stroke="#bdd7e7" cx="488" cy="-194" rx="126.358" ry="25.4118"/>
<text text-anchor="middle" x="488" y="-197.6" font-family="serif" font-size="13.00" fill="#2171b5">Check if there is at least</text>
<text text-anchor="middle" x="488" y="-183.6" font-family="serif" font-size="13.00" fill="#2171b5">one active IC headstage</text>
</g>
<!-- Check if there is at least\none active IC headstage&#45;&gt;All checks passed -->
<!-- Wildcard edge -->
<g id="edge27" class="edge"><title>Check if there is at least\none active IC headstage&#45;&gt;All checks passed</title>
<path fill="none" stroke="#9ecae1" d="M501.663,-168.407C508.437,-156.214 516.62,-141.484 523.504,-129.093"/>
<polygon fill="#9ecae1" stroke="#9ecae1" points="526.673,-130.595 528.47,-120.153 520.554,-127.195 526.673,-130.595"/>
</g>
<!-- Turn off active non&#45;IC headstages\nor headstages which have not passed FastRheoEstimate -->
<g id="node19" class="node"><title>Turn off active non&#45;IC headstages\nor headstages which have not passed FastRheoEstimate</title>
<ellipse fill="#eff3ff" stroke="#bdd7e7" cx="429" cy="-304" rx="272.354" ry="25.4118"/>
<text text-anchor="middle" x="429" y="-307.6" font-family="serif" font-size="13.00" fill="#2171b5">Turn off active non&#45;IC headstages</text>
<text text-anchor="middle" x="429" y="-293.6" font-family="serif" font-size="13.00" fill="#2171b5">or headstages which have not passed FastRheoEstimate</text>
</g>
<!-- Store active headstages in labnotebook&#45;&gt;Turn off active non&#45;IC headstages\nor headstages which have not passed FastRheoEstimate -->
<!-- Wildcard edge -->
<g id="edge10" class="edge"><title>Store active headstages in labnotebook&#45;&gt;Turn off active non&#45;IC headstages\nor headstages which have not passed FastRheoEstimate</title>
<path fill="none" stroke="#9ecae1" d="M432.229,-377.647C431.752,-366.926 431.124,-352.786 430.548,-339.833"/>
<polygon fill="#9ecae1" stroke="#9ecae1" points="434.042,-339.621 430.102,-329.786 427.049,-339.932 434.042,-339.621"/>
</g>
<!-- Turn off active non&#45;IC headstages\nor headstages which have not passed FastRheoEstimate&#45;&gt;Check if there is at least\none active IC headstage -->
<!-- Wildcard edge -->
<g id="edge25" class="edge"><title>Turn off active non&#45;IC headstages\nor headstages which have not passed FastRheoEstimate&#45;&gt;Check if there is at least\none active IC headstage</title>
<path fill="none" stroke="#9ecae1" d="M442.388,-278.493C450.46,-263.718 460.853,-244.694 469.679,-228.537"/>
<polygon fill="#9ecae1" stroke="#9ecae1" points="472.942,-229.864 474.665,-219.41 466.799,-226.508 472.942,-229.864"/>
</g>
<!-- Look for an existing and passing FastRheoEstimate sweep\n within a passing set and\n a pulse duration of more than 500ms&#45;&gt;Abort -->
<!-- Wildcard edge -->
<g id="edge24" class="edge"><title>Look for an existing and passing FastRheoEstimate sweep\n within a passing set and\n a pulse duration of more than 500ms&#45;&gt;Abort</title>
<path fill="none" stroke="#9ecae1" d="M803.389,-278.69C764.478,-266.22 726.592,-247.629 697,-220 647.077,-173.389 632.753,-89.3034 628.647,-46.156"/>
<polygon fill="#9ecae1" stroke="#9ecae1" points="632.129,-45.7898 627.808,-36.1161 625.153,-46.3729 632.129,-45.7898"/>
<text text-anchor="middle" x="676" y="-141.5" font-family="sans-serif" font-size="10.00" fill="#3182bd">Not found</text>
</g>
<!-- Use the DAScale value of that sweep\n as offset to the DAScale values from the analysis parameters -->
<g id="node21" class="node"><title>Use the DAScale value of that sweep\n as offset to the DAScale values from the analysis parameters</title>
<ellipse fill="#eff3ff" stroke="#bdd7e7" cx="1001" cy="-194" rx="294.296" ry="25.4118"/>
<text text-anchor="middle" x="1001" y="-197.6" font-family="serif" font-size="13.00" fill="#2171b5">Use the DAScale value of that sweep</text>
<text text-anchor="middle" x="1001" y="-183.6" font-family="serif" font-size="13.00" fill="#2171b5"> as offset to the DAScale values from the analysis parameters</text>
</g>
<!-- Look for an existing and passing FastRheoEstimate sweep\n within a passing set and\n a pulse duration of more than 500ms&#45;&gt;Use the DAScale value of that sweep\n as offset to the DAScale values from the analysis parameters -->
<!-- Wildcard edge -->
<g id="edge23" class="edge"><title>Look for an existing and passing FastRheoEstimate sweep\n within a passing set and\n a pulse duration of more than 500ms&#45;&gt;Use the DAScale value of that sweep\n as offset to the DAScale values from the analysis parameters</title>
<path fill="none" stroke="#9ecae1" d="M1001,-268.531C1001,-256.088 1001,-242.046 1001,-229.593"/>
<polygon fill="#9ecae1" stroke="#9ecae1" points="1004.5,-229.575 1001,-219.575 997.5,-229.576 1004.5,-229.575"/>
<text text-anchor="middle" x="1016" y="-241.5" font-family="sans-serif" font-size="10.00" fill="#3182bd">Found</text>
</g>
<!-- Mark Sweep as passed -->
<g id="node23" class="node"><title>Mark Sweep as passed</title>
<ellipse fill="#eff3ff" stroke="#bdd7e7" cx="1477" cy="-618" rx="103.392" ry="18"/>
<text text-anchor="middle" x="1477" y="-614.6" font-family="serif" font-size="13.00" fill="#2171b5">Mark Sweep as passed</text>
</g>
<!-- Mark all active headstages as passed&#45;&gt;Mark Sweep as passed -->
<!-- Wildcard edge -->
<g id="edge13" class="edge"><title>Mark all active headstages as passed&#45;&gt;Mark Sweep as passed</title>
<path fill="none" stroke="#9ecae1" d="M1477,-691.647C1477,-678.823 1477,-661.108 1477,-646.381"/>
<polygon fill="#9ecae1" stroke="#9ecae1" points="1480.5,-646.3 1477,-636.3 1473.5,-646.3 1480.5,-646.3"/>
</g>
<!-- Update Dashboard -->
<g id="node25" class="node"><title>Update Dashboard</title>
<ellipse fill="#eff3ff" stroke="#bdd7e7" cx="205" cy="-618" rx="87.2571" ry="18"/>
<text text-anchor="middle" x="205" y="-614.6" font-family="serif" font-size="13.00" fill="#2171b5">Update Dashboard</text>
</g>
<!-- Read active headstages from labnotebook\nand turn them all on again&#45;&gt;Update Dashboard -->
<!-- Wildcard edge -->
<g id="edge15" class="edge"><title>Read active headstages from labnotebook\nand turn them all on again&#45;&gt;Update Dashboard</title>
<path fill="none" stroke="#9ecae1" d="M205,-684.407C205,-672.572 205,-658.349 205,-646.192"/>
<polygon fill="#9ecae1" stroke="#9ecae1" points="208.5,-646.153 205,-636.153 201.5,-646.153 208.5,-646.153"/>
</g>
<!-- Mark set as passed -->
<g id="node27" class="node"><title>Mark set as passed</title>
<ellipse fill="#eff3ff" stroke="#bdd7e7" cx="1748" cy="-710" rx="89.0995" ry="18"/>
<text text-anchor="middle" x="1748" y="-706.6" font-family="serif" font-size="13.00" fill="#2171b5">Mark set as passed</text>
</g>
<!-- Post Set Event&#45;&gt;Mark set as passed -->
<!-- Wildcard edge -->
<g id="edge16" class="edge"><title>Post Set Event&#45;&gt;Mark set as passed</title>
<path fill="none" stroke="#9ecae1" d="M1630.24,-785.117C1653.33,-770.582 1687.71,-748.943 1713.37,-732.794"/>
<polygon fill="#9ecae1" stroke="#9ecae1" points="1715.45,-735.621 1722.05,-727.332 1711.72,-729.696 1715.45,-735.621"/>
</g>
</g>
</svg>
