<?xml version="1.0" encoding="UTF-8" standalone="no"?>
<!DOCTYPE svg PUBLIC "-//W3C//DTD SVG 1.1//EN"
 "http://www.w3.org/Graphics/SVG/1.1/DTD/svg11.dtd">
<!-- Generated by graphviz version 2.36.0 (20140111.2315)
 -->
<!-- Title: G Pages: 1 -->
<svg width="1948pt" height="796pt"
 viewBox="0.00 0.00 1948.00 796.00" xmlns="http://www.w3.org/2000/svg" xmlns:xlink="http://www.w3.org/1999/xlink">
<g id="graph0" class="graph" transform="scale(1 1) rotate(0) translate(4 792)">
<title>G</title>
<polygon fill="white" stroke="none" points="-4,4 -4,-792 1944,-792 1944,4 -4,4"/>
<g id="clust1" class="cluster"><title>cluster_preDAQ</title>
<polygon fill="none" stroke="none" stroke-width="0.1" points="8,-8 8,-722 728,-722 728,-8 8,-8"/>
</g>
<!-- Start DAQ/RA -->
<g id="node1" class="node"><title>Start DAQ/RA</title>
<ellipse fill="#eff3ff" stroke="#bdd7e7" cx="1219" cy="-770" rx="67.3838" ry="18"/>
<text text-anchor="middle" x="1219" y="-766.6" font-family="serif" font-size="13.00" fill="#2171b5">Start DAQ/RA</text>
</g>
<!-- Prepare DAQ/Pre Set Event -->
<g id="node2" class="node"><title>Prepare DAQ/Pre Set Event</title>
<ellipse fill="#eff3ff" stroke="#bdd7e7" cx="514" cy="-696" rx="122.318" ry="18"/>
<text text-anchor="middle" x="514" y="-692.6" font-family="serif" font-size="13.00" fill="#2171b5">Prepare DAQ/Pre Set Event</text>
</g>
<!-- Start DAQ/RA&#45;&gt;Prepare DAQ/Pre Set Event -->
<!-- Wildcard edge -->
<g id="edge1" class="edge"><title>Start DAQ/RA&#45;&gt;Prepare DAQ/Pre Set Event</title>
<path fill="none" stroke="#9ecae1" d="M1157.36,-762.705C1037.41,-750.454 771.257,-723.273 621.584,-707.987"/>
<polygon fill="#9ecae1" stroke="#9ecae1" points="621.759,-704.487 611.455,-706.953 621.048,-711.451 621.759,-704.487"/>
</g>
<!-- Post Sweep Event -->
<g id="node3" class="node"><title>Post Sweep Event</title>
<ellipse fill="#eff3ff" stroke="#bdd7e7" cx="1103" cy="-696" rx="84.0194" ry="18"/>
<text text-anchor="middle" x="1103" y="-692.6" font-family="serif" font-size="13.00" fill="#2171b5">Post Sweep Event</text>
</g>
<!-- Start DAQ/RA&#45;&gt;Post Sweep Event -->
<!-- Wildcard edge -->
<g id="edge2" class="edge"><title>Start DAQ/RA&#45;&gt;Post Sweep Event</title>
<path fill="none" stroke="#9ecae1" d="M1193.54,-753.199C1177.3,-743.118 1156.02,-729.911 1138.18,-718.834"/>
<polygon fill="#9ecae1" stroke="#9ecae1" points="1139.54,-715.563 1129.2,-713.263 1135.85,-721.51 1139.54,-715.563"/>
</g>
<!-- Post DAQ Event -->
<g id="node4" class="node"><title>Post DAQ Event</title>
<ellipse fill="#eff3ff" stroke="#bdd7e7" cx="1336" cy="-696" rx="75.2544" ry="18"/>
<text text-anchor="middle" x="1336" y="-692.6" font-family="serif" font-size="13.00" fill="#2171b5">Post DAQ Event</text>
</g>
<!-- Start DAQ/RA&#45;&gt;Post DAQ Event -->
<!-- Wildcard edge -->
<g id="edge3" class="edge"><title>Start DAQ/RA&#45;&gt;Post DAQ Event</title>
<path fill="none" stroke="#9ecae1" d="M1244.68,-753.199C1261.32,-742.954 1283.22,-729.481 1301.39,-718.296"/>
<polygon fill="#9ecae1" stroke="#9ecae1" points="1303.3,-721.234 1309.98,-713.013 1299.63,-715.273 1303.3,-721.234"/>
</g>
<!-- Post Set Event -->
<g id="node36" class="node"><title>Post Set Event</title>
<ellipse fill="#eff3ff" stroke="#bdd7e7" cx="1592" cy="-696" rx="70.6212" ry="18"/>
<text text-anchor="middle" x="1592" y="-692.6" font-family="serif" font-size="13.00" fill="#2171b5">Post Set Event</text>
</g>
<!-- Start DAQ/RA&#45;&gt;Post Set Event -->
<!-- Wildcard edge -->
<g id="edge40" class="edge"><title>Start DAQ/RA&#45;&gt;Post Set Event</title>
<path fill="none" stroke="#9ecae1" d="M1272.05,-758.761C1339.38,-745.764 1455.44,-723.361 1527.72,-709.407"/>
<polygon fill="#9ecae1" stroke="#9ecae1" points="1528.47,-712.828 1537.62,-707.496 1527.14,-705.955 1528.47,-712.828"/>
</g>
<!-- Enable &quot;Multidevice DAQ&quot; -->
<!-- Wildcard node added automatic in EG. -->
<g id="node6" class="node"><title>Enable &quot;Multidevice DAQ&quot;</title>
<ellipse fill="#eff3ff" stroke="#bdd7e7" cx="253" cy="-594" rx="118.134" ry="18"/>
<text text-anchor="middle" x="253" y="-590.6" font-family="serif" font-size="13.00" fill="#2171b5">Enable &quot;Multidevice DAQ&quot;</text>
</g>
<!-- Prepare DAQ/Pre Set Event&#45;&gt;Enable &quot;Multidevice DAQ&quot; -->
<!-- Wildcard node added automatic in EG. -->
<g id="edge5" class="edge"><title>Prepare DAQ/Pre Set Event&#45;&gt;Enable &quot;Multidevice DAQ&quot;</title>
<path fill="none" stroke="#9ecae1" d="M472.355,-679.044C426.615,-661.519 353.141,-633.368 303.988,-614.535"/>
<polygon fill="#9ecae1" stroke="#9ecae1" points="305.087,-611.209 294.496,-610.899 302.582,-617.745 305.087,-611.209"/>
</g>
<!-- Check if mode is IC -->
<!-- Wildcard node added automatic in EG. -->
<g id="node16" class="node"><title>Check if mode is IC</title>
<ellipse fill="#eff3ff" stroke="#bdd7e7" cx="514" cy="-594" rx="89.9952" ry="18"/>
<text text-anchor="middle" x="514" y="-590.6" font-family="serif" font-size="13.00" fill="#2171b5">Check if mode is IC</text>
</g>
<!-- Prepare DAQ/Pre Set Event&#45;&gt;Check if mode is IC -->
<!-- Wildcard node added automatic in EG. -->
<g id="edge11" class="edge"><title>Prepare DAQ/Pre Set Event&#45;&gt;Check if mode is IC</title>
<path fill="none" stroke="#9ecae1" d="M514,-677.581C514,-662.382 514,-640.067 514,-622.464"/>
<polygon fill="#9ecae1" stroke="#9ecae1" points="517.5,-622.219 514,-612.219 510.5,-622.219 517.5,-622.219"/>
</g>
<!-- Spike detected?\n(x range: pulse onset to end of sweep\ny condition: max above 0.01mV)\nStore result in labnotebook -->
<g id="node20" class="node"><title>Spike detected?\n(x range: pulse onset to end of sweep\ny condition: max above 0.01mV)\nStore result in labnotebook</title>
<ellipse fill="#eff3ff" stroke="#bdd7e7" cx="1061" cy="-594" rx="183.272" ry="45.011"/>
<text text-anchor="middle" x="1061" y="-611.6" font-family="serif" font-size="13.00" fill="#2171b5">Spike detected?</text>
<text text-anchor="middle" x="1061" y="-597.6" font-family="serif" font-size="13.00" fill="#2171b5">(x range: pulse onset to end of sweep</text>
<text text-anchor="middle" x="1061" y="-583.6" font-family="serif" font-size="13.00" fill="#2171b5">y condition: max above 0.01mV)</text>
<text text-anchor="middle" x="1061" y="-569.6" font-family="serif" font-size="13.00" fill="#2171b5">Store result in labnotebook</text>
</g>
<!-- Post Sweep Event&#45;&gt;Spike detected?\n(x range: pulse onset to end of sweep\ny condition: max above 0.01mV)\nStore result in labnotebook -->
<!-- Wildcard edge -->
<g id="edge19" class="edge"><title>Post Sweep Event&#45;&gt;Spike detected?\n(x range: pulse onset to end of sweep\ny condition: max above 0.01mV)\nStore result in labnotebook</title>
<path fill="none" stroke="#9ecae1" d="M1095.88,-678.036C1092.4,-669.761 1088.01,-659.301 1083.52,-648.62"/>
<polygon fill="#9ecae1" stroke="#9ecae1" points="1086.67,-647.09 1079.57,-639.225 1080.22,-649.801 1086.67,-647.09"/>
</g>
<!-- Update Dashboard -->
<g id="node5" class="node"><title>Update Dashboard</title>
<ellipse fill="#eff3ff" stroke="#bdd7e7" cx="1350" cy="-594" rx="87.2571" ry="18"/>
<text text-anchor="middle" x="1350" y="-590.6" font-family="serif" font-size="13.00" fill="#2171b5">Update Dashboard</text>
</g>
<!-- Post DAQ Event&#45;&gt;Update Dashboard -->
<!-- Wildcard edge -->
<g id="edge4" class="edge"><title>Post DAQ Event&#45;&gt;Update Dashboard</title>
<path fill="none" stroke="#9ecae1" d="M1338.44,-677.581C1340.57,-662.382 1343.69,-640.067 1346.15,-622.464"/>
<polygon fill="#9ecae1" stroke="#9ecae1" points="1349.67,-622.608 1347.59,-612.219 1342.74,-621.637 1349.67,-622.608"/>
</g>
<!-- Disable &quot;dDAQ&quot;/&quot;oodDAQ&quot; -->
<!-- Wildcard node added automatic in EG. -->
<g id="node7" class="node"><title>Disable &quot;dDAQ&quot;/&quot;oodDAQ&quot;</title>
<ellipse fill="#eff3ff" stroke="#bdd7e7" cx="186" cy="-482" rx="118.134" ry="18"/>
<text text-anchor="middle" x="186" y="-478.6" font-family="serif" font-size="13.00" fill="#2171b5">Disable &quot;dDAQ&quot;/&quot;oodDAQ&quot;</text>
</g>
<!-- Enable &quot;Multidevice DAQ&quot;&#45;&gt;Disable &quot;dDAQ&quot;/&quot;oodDAQ&quot; -->
<!-- Wildcard node added automatic in EG. -->
<g id="edge6" class="edge"><title>Enable &quot;Multidevice DAQ&quot;&#45;&gt;Disable &quot;dDAQ&quot;/&quot;oodDAQ&quot;</title>
<path fill="none" stroke="#9ecae1" d="M242.531,-575.812C231.567,-557.811 214.222,-529.335 201.635,-508.669"/>
<polygon fill="#9ecae1" stroke="#9ecae1" points="204.586,-506.787 196.395,-500.067 198.608,-510.428 204.586,-506.787"/>
</g>
<!-- Set &quot;TP inserting&quot; to disabled -->
<!-- Wildcard node added automatic in EG. -->
<g id="node14" class="node"><title>Set &quot;TP inserting&quot; to disabled</title>
<ellipse fill="#eff3ff" stroke="#bdd7e7" cx="165" cy="-390" rx="133.373" ry="18"/>
<text text-anchor="middle" x="165" y="-386.6" font-family="serif" font-size="13.00" fill="#2171b5">Set &quot;TP inserting&quot; to disabled</text>
</g>
<!-- Disable &quot;dDAQ&quot;/&quot;oodDAQ&quot;&#45;&gt;Set &quot;TP inserting&quot; to disabled -->
<!-- Wildcard node added automatic in EG. -->
<g id="edge7" class="edge"><title>Disable &quot;dDAQ&quot;/&quot;oodDAQ&quot;&#45;&gt;Set &quot;TP inserting&quot; to disabled</title>
<path fill="none" stroke="#9ecae1" d="M181.951,-463.647C178.939,-450.741 174.772,-432.88 171.323,-418.099"/>
<polygon fill="#9ecae1" stroke="#9ecae1" points="174.646,-416.937 168.965,-407.994 167.829,-418.528 174.646,-416.937"/>
</g>
<!-- Enable &quot;Repeated Acquisition&quot; -->
<!-- Wildcard node added automatic in EG. -->
<g id="node8" class="node"><title>Enable &quot;Repeated Acquisition&quot;</title>
<ellipse fill="#eff3ff" stroke="#bdd7e7" cx="154" cy="-108" rx="137.558" ry="18"/>
<text text-anchor="middle" x="154" y="-104.6" font-family="serif" font-size="13.00" fill="#2171b5">Enable &quot;Repeated Acquisition&quot;</text>
</g>
<!-- Check if no TTL channels are active -->
<!-- Wildcard node added automatic in EG. -->
<g id="node9" class="node"><title>Check if no TTL channels are active</title>
<ellipse fill="#eff3ff" stroke="#bdd7e7" cx="514" cy="-482" rx="159.274" ry="18"/>
<text text-anchor="middle" x="514" y="-478.6" font-family="serif" font-size="13.00" fill="#2171b5">Check if no TTL channels are active</text>
</g>
<!-- Check if only one headstage is active -->
<!-- Wildcard node added automatic in EG. -->
<g id="node11" class="node"><title>Check if only one headstage is active</title>
<ellipse fill="#eff3ff" stroke="#bdd7e7" cx="514" cy="-390" rx="164.354" ry="18"/>
<text text-anchor="middle" x="514" y="-386.6" font-family="serif" font-size="13.00" fill="#2171b5">Check if only one headstage is active</text>
</g>
<!-- Check if no TTL channels are active&#45;&gt;Check if only one headstage is active -->
<!-- Wildcard node added automatic in EG. -->
<g id="edge13" class="edge"><title>Check if no TTL channels are active&#45;&gt;Check if only one headstage is active</title>
<path fill="none" stroke="#9ecae1" d="M514,-463.647C514,-450.823 514,-433.108 514,-418.381"/>
<polygon fill="#9ecae1" stroke="#9ecae1" points="517.5,-418.3 514,-408.3 510.5,-418.3 517.5,-418.3"/>
</g>
<!-- Set &quot;TP during ITI&quot; to disabled -->
<!-- Wildcard node added automatic in EG. -->
<g id="node10" class="node"><title>Set &quot;TP during ITI&quot; to disabled</title>
<ellipse fill="#eff3ff" stroke="#bdd7e7" cx="153" cy="-290" rx="137.111" ry="18"/>
<text text-anchor="middle" x="153" y="-286.6" font-family="serif" font-size="13.00" fill="#2171b5">Set &quot;TP during ITI&quot; to disabled</text>
</g>
<!-- Set &quot;ITI&quot; to 100ms -->
<!-- Wildcard node added automatic in EG. -->
<g id="node15" class="node"><title>Set &quot;ITI&quot; to 100ms</title>
<ellipse fill="#eff3ff" stroke="#bdd7e7" cx="154" cy="-200" rx="86.3093" ry="18"/>
<text text-anchor="middle" x="154" y="-196.6" font-family="serif" font-size="13.00" fill="#2171b5">Set &quot;ITI&quot; to 100ms</text>
</g>
<!-- Set &quot;TP during ITI&quot; to disabled&#45;&gt;Set &quot;ITI&quot; to 100ms -->
<!-- Wildcard node added automatic in EG. -->
<g id="edge9" class="edge"><title>Set &quot;TP during ITI&quot; to disabled&#45;&gt;Set &quot;ITI&quot; to 100ms</title>
<path fill="none" stroke="#9ecae1" d="M153.198,-271.614C153.338,-259.24 153.53,-242.369 153.691,-228.22"/>
<polygon fill="#9ecae1" stroke="#9ecae1" points="157.192,-228.09 153.806,-218.05 150.193,-228.01 157.192,-228.09"/>
</g>
<!-- All required analysis parameters present?\nSamplingMultiplier: variable -->
<!-- Wildcard node added automatic in EG. -->
<g id="node13" class="node"><title>All required analysis parameters present?\nSamplingMultiplier: variable</title>
<ellipse fill="#eff3ff" stroke="#bdd7e7" cx="514" cy="-290" rx="205.153" ry="25.4118"/>
<text text-anchor="middle" x="514" y="-293.6" font-family="serif" font-size="13.00" fill="#2171b5">All required analysis parameters present?</text>
<text text-anchor="middle" x="514" y="-279.6" font-family="serif" font-size="13.00" fill="#2171b5">SamplingMultiplier: variable</text>
</g>
<!-- Check if only one headstage is active&#45;&gt;All required analysis parameters present?\nSamplingMultiplier: variable -->
<!-- Wildcard node added automatic in EG. -->
<g id="edge14" class="edge"><title>Check if only one headstage is active&#45;&gt;All required analysis parameters present?\nSamplingMultiplier: variable</title>
<path fill="none" stroke="#9ecae1" d="M514,-371.93C514,-359.276 514,-341.589 514,-325.977"/>
<polygon fill="#9ecae1" stroke="#9ecae1" points="517.5,-325.587 514,-315.587 510.5,-325.587 517.5,-325.587"/>
</g>
<!-- All checks passed -->
<!-- Wildcard node added automatic in EG. -->
<g id="node12" class="node"><title>All checks passed</title>
<ellipse fill="#eff3ff" stroke="#bdd7e7" cx="514" cy="-200" rx="84.0194" ry="18"/>
<text text-anchor="middle" x="514" y="-196.6" font-family="serif" font-size="13.00" fill="#2171b5">All checks passed</text>
</g>
<!-- Set DAScale to 100pA -->
<!-- Wildcard node added automatic in EG. -->
<g id="node17" class="node"><title>Set DAScale to 100pA</title>
<ellipse fill="#eff3ff" stroke="#bdd7e7" cx="432" cy="-108" rx="100.155" ry="18"/>
<text text-anchor="middle" x="432" y="-104.6" font-family="serif" font-size="13.00" fill="#2171b5">Set DAScale to 100pA</text>
</g>
<!-- All checks passed&#45;&gt;Set DAScale to 100pA -->
<!-- Wildcard node added automatic in EG. -->
<g id="edge16" class="edge"><title>All checks passed&#45;&gt;Set DAScale to 100pA</title>
<path fill="none" stroke="#9ecae1" d="M498.576,-182.072C486.092,-168.37 468.341,-148.886 454.307,-133.483"/>
<polygon fill="#9ecae1" stroke="#9ecae1" points="456.677,-130.887 447.354,-125.852 451.502,-135.602 456.677,-130.887"/>
<text text-anchor="middle" x="481" y="-147.5" font-family="sans-serif" font-size="10.00" fill="#3182bd">Yes</text>
</g>
<!-- Abort -->
<!-- Wildcard node added automatic in EG. -->
<g id="node19" class="node"><title>Abort</title>
<ellipse fill="#eff3ff" stroke="#bdd7e7" cx="584" cy="-108" rx="33.2184" ry="18"/>
<text text-anchor="middle" x="584" y="-104.6" font-family="serif" font-size="13.00" fill="#2171b5">Abort</text>
</g>
<!-- All checks passed&#45;&gt;Abort -->
<!-- Wildcard node added automatic in EG. -->
<g id="edge18" class="edge"><title>All checks passed&#45;&gt;Abort</title>
<path fill="none" stroke="#9ecae1" d="M527.166,-182.072C537.926,-168.237 553.27,-148.51 565.303,-133.039"/>
<polygon fill="#9ecae1" stroke="#9ecae1" points="568.221,-134.988 571.598,-124.946 562.695,-130.691 568.221,-134.988"/>
<text text-anchor="middle" x="563" y="-147.5" font-family="sans-serif" font-size="10.00" fill="#3182bd">No</text>
</g>
<!-- All required analysis parameters present?\nSamplingMultiplier: variable&#45;&gt;All checks passed -->
<!-- Wildcard node added automatic in EG. -->
<g id="edge15" class="edge"><title>All required analysis parameters present?\nSamplingMultiplier: variable&#45;&gt;All checks passed</title>
<path fill="none" stroke="#9ecae1" d="M514,-264.487C514,-253.195 514,-239.758 514,-228.159"/>
<polygon fill="#9ecae1" stroke="#9ecae1" points="517.5,-228.139 514,-218.139 510.5,-228.139 517.5,-228.139"/>
</g>
<!-- Set &quot;TP inserting&quot; to disabled&#45;&gt;Set &quot;TP during ITI&quot; to disabled -->
<!-- Wildcard node added automatic in EG. -->
<g id="edge8" class="edge"><title>Set &quot;TP inserting&quot; to disabled&#45;&gt;Set &quot;TP during ITI&quot; to disabled</title>
<path fill="none" stroke="#9ecae1" d="M162.91,-371.93C161.097,-357.125 158.441,-335.432 156.334,-318.231"/>
<polygon fill="#9ecae1" stroke="#9ecae1" points="159.796,-317.704 155.107,-308.203 152.848,-318.555 159.796,-317.704"/>
</g>
<!-- Set &quot;ITI&quot; to 100ms&#45;&gt;Enable &quot;Repeated Acquisition&quot; -->
<!-- Wildcard node added automatic in EG. -->
<g id="edge10" class="edge"><title>Set &quot;ITI&quot; to 100ms&#45;&gt;Enable &quot;Repeated Acquisition&quot;</title>
<path fill="none" stroke="#9ecae1" d="M154,-181.647C154,-168.823 154,-151.108 154,-136.381"/>
<polygon fill="#9ecae1" stroke="#9ecae1" points="157.5,-136.3 154,-126.3 150.5,-136.3 157.5,-136.3"/>
</g>
<!-- Check if mode is IC&#45;&gt;Check if no TTL channels are active -->
<!-- Wildcard node added automatic in EG. -->
<g id="edge12" class="edge"><title>Check if mode is IC&#45;&gt;Check if no TTL channels are active</title>
<path fill="none" stroke="#9ecae1" d="M514,-575.812C514,-558.215 514,-530.607 514,-510.071"/>
<polygon fill="#9ecae1" stroke="#9ecae1" points="517.5,-510.067 514,-500.067 510.5,-510.067 517.5,-510.067"/>
</g>
<!-- Write initial stepsize of 100pA into labnotebook -->
<!-- Wildcard node added automatic in EG. -->
<g id="node18" class="node"><title>Write initial stepsize of 100pA into labnotebook</title>
<ellipse fill="#eff3ff" stroke="#bdd7e7" cx="432" cy="-34" rx="209.127" ry="18"/>
<text text-anchor="middle" x="432" y="-30.6" font-family="serif" font-size="13.00" fill="#2171b5">Write initial stepsize of 100pA into labnotebook</text>
</g>
<!-- Set DAScale to 100pA&#45;&gt;Write initial stepsize of 100pA into labnotebook -->
<!-- Wildcard node added automatic in EG. -->
<g id="edge17" class="edge"><title>Set DAScale to 100pA&#45;&gt;Write initial stepsize of 100pA into labnotebook</title>
<path fill="none" stroke="#9ecae1" d="M432,-89.937C432,-81.8072 432,-71.8761 432,-62.7047"/>
<polygon fill="#9ecae1" stroke="#9ecae1" points="435.5,-62.4406 432,-52.4407 428.5,-62.4407 435.5,-62.4406"/>
</g>
<!-- DAScale is zero -->
<g id="node21" class="node"><title>DAScale is zero</title>
<ellipse fill="#eff3ff" stroke="#bdd7e7" cx="1061" cy="-482" rx="73.3599" ry="18"/>
<text text-anchor="middle" x="1061" y="-478.6" font-family="serif" font-size="13.00" fill="#2171b5">DAScale is zero</text>
</g>
<!-- Spike detected?\n(x range: pulse onset to end of sweep\ny condition: max above 0.01mV)\nStore result in labnotebook&#45;&gt;DAScale is zero -->
<!-- Wildcard edge -->
<g id="edge20" class="edge"><title>Spike detected?\n(x range: pulse onset to end of sweep\ny condition: max above 0.01mV)\nStore result in labnotebook&#45;&gt;DAScale is zero</title>
<path fill="none" stroke="#9ecae1" d="M1061,-548.576C1061,-535.653 1061,-521.92 1061,-510.379"/>
<polygon fill="#9ecae1" stroke="#9ecae1" points="1064.5,-510.083 1061,-500.083 1057.5,-510.083 1064.5,-510.083"/>
<text text-anchor="middle" x="1069" y="-521.5" font-family="sans-serif" font-size="10.00" fill="#3182bd">Yes</text>
</g>
<!-- Step Size from labnotebook? -->
<g id="node30" class="node"><title>Step Size from labnotebook?</title>
<ellipse fill="#eff3ff" stroke="#bdd7e7" cx="1629" cy="-390" rx="128.346" ry="18"/>
<text text-anchor="middle" x="1629" y="-386.6" font-family="serif" font-size="13.00" fill="#2171b5">Step Size from labnotebook?</text>
</g>
<!-- Spike detected?\n(x range: pulse onset to end of sweep\ny condition: max above 0.01mV)\nStore result in labnotebook&#45;&gt;Step Size from labnotebook? -->
<!-- Wildcard edge -->
<g id="edge30" class="edge"><title>Spike detected?\n(x range: pulse onset to end of sweep\ny condition: max above 0.01mV)\nStore result in labnotebook&#45;&gt;Step Size from labnotebook?</title>
<path fill="none" stroke="#9ecae1" d="M1163.86,-556.419C1284.59,-513.485 1480.27,-443.895 1574.65,-410.327"/>
<polygon fill="#9ecae1" stroke="#9ecae1" points="1576.04,-413.55 1584.29,-406.901 1573.69,-406.954 1576.04,-413.55"/>
<text text-anchor="middle" x="1426" y="-479.5" font-family="sans-serif" font-size="10.00" fill="#3182bd">No</text>
</g>
<!-- Step size from labnotebook? -->
<g id="node22" class="node"><title>Step size from labnotebook?</title>
<ellipse fill="#eff3ff" stroke="#bdd7e7" cx="1170" cy="-390" rx="127.398" ry="18"/>
<text text-anchor="middle" x="1170" y="-386.6" font-family="serif" font-size="13.00" fill="#2171b5">Step size from labnotebook?</text>
</g>
<!-- DAScale is zero&#45;&gt;Step size from labnotebook? -->
<!-- Wildcard edge -->
<g id="edge21" class="edge"><title>DAScale is zero&#45;&gt;Step size from labnotebook?</title>
<path fill="none" stroke="#9ecae1" d="M1080.99,-464.493C1097.99,-450.461 1122.58,-430.151 1141.62,-414.436"/>
<polygon fill="#9ecae1" stroke="#9ecae1" points="1143.91,-417.08 1149.39,-408.014 1139.45,-411.682 1143.91,-417.08"/>
<text text-anchor="middle" x="1122" y="-437.5" font-family="sans-serif" font-size="10.00" fill="#3182bd">No</text>
</g>
<!-- Add labnotebook entry\ndocumenting this case -->
<g id="node23" class="node"><title>Add labnotebook entry\ndocumenting this case</title>
<ellipse fill="#eff3ff" stroke="#bdd7e7" cx="895" cy="-390" rx="117.07" ry="25.4118"/>
<text text-anchor="middle" x="895" y="-393.6" font-family="serif" font-size="13.00" fill="#2171b5">Add labnotebook entry</text>
<text text-anchor="middle" x="895" y="-379.6" font-family="serif" font-size="13.00" fill="#2171b5">documenting this case</text>
</g>
<!-- DAScale is zero&#45;&gt;Add labnotebook entry\ndocumenting this case -->
<!-- Wildcard edge -->
<g id="edge22" class="edge"><title>DAScale is zero&#45;&gt;Add labnotebook entry\ndocumenting this case</title>
<path fill="none" stroke="#9ecae1" d="M1032.09,-465.323C1008.45,-452.508 974.445,-434.073 946.219,-418.769"/>
<polygon fill="#9ecae1" stroke="#9ecae1" points="947.737,-415.611 937.278,-413.922 944.401,-421.765 947.737,-415.611"/>
<text text-anchor="middle" x="1001" y="-437.5" font-family="sans-serif" font-size="10.00" fill="#3182bd">Yes</text>
</g>
<!-- Store DAScale\nin labnotebook -->
<g id="node27" class="node"><title>Store DAScale\nin labnotebook</title>
<ellipse fill="#eff3ff" stroke="#bdd7e7" cx="1074" cy="-290" rx="80.415" ry="25.4118"/>
<text text-anchor="middle" x="1074" y="-293.6" font-family="serif" font-size="13.00" fill="#2171b5">Store DAScale</text>
<text text-anchor="middle" x="1074" y="-279.6" font-family="serif" font-size="13.00" fill="#2171b5">in labnotebook</text>
</g>
<!-- Step size from labnotebook?&#45;&gt;Store DAScale\nin labnotebook -->
<!-- Wildcard edge -->
<g id="edge26" class="edge"><title>Step size from labnotebook?&#45;&gt;Store DAScale\nin labnotebook</title>
<path fill="none" stroke="#9ecae1" d="M1153.28,-371.93C1139.77,-358.139 1120.4,-338.37 1104.19,-321.824"/>
<polygon fill="#9ecae1" stroke="#9ecae1" points="1106.5,-319.176 1097,-314.481 1101.5,-324.074 1106.5,-319.176"/>
<text text-anchor="middle" x="1144" y="-337.5" font-family="sans-serif" font-size="10.00" fill="#3182bd">+10pA</text>
</g>
<!-- Offset DAScale\nby &#45;50pA -->
<g id="node28" class="node"><title>Offset DAScale\nby &#45;50pA</title>
<ellipse fill="#eff3ff" stroke="#bdd7e7" cx="1431" cy="-200" rx="80.415" ry="25.4118"/>
<text text-anchor="middle" x="1431" y="-203.6" font-family="serif" font-size="13.00" fill="#2171b5">Offset DAScale</text>
<text text-anchor="middle" x="1431" y="-189.6" font-family="serif" font-size="13.00" fill="#2171b5">by &#45;50pA</text>
</g>
<!-- Step size from labnotebook?&#45;&gt;Offset DAScale\nby &#45;50pA -->
<!-- Wildcard edge -->
<g id="edge27" class="edge"><title>Step size from labnotebook?&#45;&gt;Offset DAScale\nby &#45;50pA</title>
<path fill="none" stroke="#9ecae1" d="M1274.12,-379.623C1319.83,-370.274 1370.59,-351.903 1404,-316 1423.93,-294.588 1430.03,-261.34 1431.53,-236.089"/>
<polygon fill="#9ecae1" stroke="#9ecae1" points="1435.04,-235.94 1431.92,-225.815 1428.04,-235.677 1435.04,-235.94"/>
<text text-anchor="middle" x="1441.5" y="-287.5" font-family="sans-serif" font-size="10.00" fill="#3182bd">&#45;50pA</text>
</g>
<!-- Write step size of\n&#45;50pA to labnotebook -->
<g id="node29" class="node"><title>Write step size of\n&#45;50pA to labnotebook</title>
<ellipse fill="#eff3ff" stroke="#bdd7e7" cx="1284" cy="-290" rx="111.024" ry="25.4118"/>
<text text-anchor="middle" x="1284" y="-293.6" font-family="serif" font-size="13.00" fill="#2171b5">Write step size of</text>
<text text-anchor="middle" x="1284" y="-279.6" font-family="serif" font-size="13.00" fill="#2171b5">&#45;50pA to labnotebook</text>
</g>
<!-- Step size from labnotebook?&#45;&gt;Write step size of\n&#45;50pA to labnotebook -->
<!-- Wildcard edge -->
<g id="edge28" class="edge"><title>Step size from labnotebook?&#45;&gt;Write step size of\n&#45;50pA to labnotebook</title>
<path fill="none" stroke="#9ecae1" d="M1189.6,-372.153C1205.71,-358.301 1228.97,-338.31 1248.36,-321.636"/>
<polygon fill="#9ecae1" stroke="#9ecae1" points="1250.83,-324.131 1256.13,-314.958 1246.27,-318.823 1250.83,-324.131"/>
<text text-anchor="middle" x="1253" y="-337.5" font-family="sans-serif" font-size="10.00" fill="#3182bd">+100pA</text>
</g>
<!-- Mark sweep as failure [2] -->
<g id="node24" class="node"><title>Mark sweep as failure [2]</title>
<ellipse fill="#eff3ff" stroke="#bdd7e7" cx="860" cy="-290" rx="115.395" ry="18"/>
<text text-anchor="middle" x="860" y="-286.6" font-family="serif" font-size="13.00" fill="#2171b5">Mark sweep as failure [2]</text>
</g>
<!-- Add labnotebook entry\ndocumenting this case&#45;&gt;Mark sweep as failure [2] -->
<!-- Wildcard edge -->
<g id="edge23" class="edge"><title>Add labnotebook entry\ndocumenting this case&#45;&gt;Mark sweep as failure [2]</title>
<path fill="none" stroke="#9ecae1" d="M886.258,-364.523C881.158,-350.244 874.722,-332.22 869.497,-317.592"/>
<polygon fill="#9ecae1" stroke="#9ecae1" points="872.765,-316.336 866.106,-308.096 866.173,-318.69 872.765,-316.336"/>
</g>
<!-- Three sweeps exist with\nthis labnotebook entry? -->
<g id="node25" class="node"><title>Three sweeps exist with\nthis labnotebook entry?</title>
<ellipse fill="#eff3ff" stroke="#bdd7e7" cx="860" cy="-200" rx="124.176" ry="25.4118"/>
<text text-anchor="middle" x="860" y="-203.6" font-family="serif" font-size="13.00" fill="#2171b5">Three sweeps exist with</text>
<text text-anchor="middle" x="860" y="-189.6" font-family="serif" font-size="13.00" fill="#2171b5">this labnotebook entry?</text>
</g>
<!-- Mark sweep as failure [2]&#45;&gt;Three sweeps exist with\nthis labnotebook entry? -->
<!-- Wildcard edge -->
<g id="edge24" class="edge"><title>Mark sweep as failure [2]&#45;&gt;Three sweeps exist with\nthis labnotebook entry?</title>
<path fill="none" stroke="#9ecae1" d="M860,-271.614C860,-261.361 860,-248.02 860,-235.699"/>
<polygon fill="#9ecae1" stroke="#9ecae1" points="863.5,-235.679 860,-225.679 856.5,-235.679 863.5,-235.679"/>
</g>
<!-- Skip to end of active set -->
<g id="node26" class="node"><title>Skip to end of active set</title>
<ellipse fill="#eff3ff" stroke="#bdd7e7" cx="929" cy="-108" rx="111.263" ry="18"/>
<text text-anchor="middle" x="929" y="-104.6" font-family="serif" font-size="13.00" fill="#2171b5">Skip to end of active set</text>
</g>
<!-- Three sweeps exist with\nthis labnotebook entry?&#45;&gt;Skip to end of active set -->
<!-- Wildcard edge -->
<g id="edge25" class="edge"><title>Three sweeps exist with\nthis labnotebook entry?&#45;&gt;Skip to end of active set</title>
<path fill="none" stroke="#9ecae1" d="M878.855,-174.407C888.386,-161.975 899.939,-146.906 909.552,-134.367"/>
<polygon fill="#9ecae1" stroke="#9ecae1" points="912.542,-136.219 915.849,-126.153 906.987,-131.96 912.542,-136.219"/>
<text text-anchor="middle" x="909" y="-147.5" font-family="sans-serif" font-size="10.00" fill="#3182bd">Yes</text>
</g>
<!-- Mark sweep as passed -->
<g id="node34" class="node"><title>Mark sweep as passed</title>
<ellipse fill="#eff3ff" stroke="#bdd7e7" cx="1105" cy="-200" rx="101.998" ry="18"/>
<text text-anchor="middle" x="1105" y="-196.6" font-family="serif" font-size="13.00" fill="#2171b5">Mark sweep as passed</text>
</g>
<!-- Store DAScale\nin labnotebook&#45;&gt;Mark sweep as passed -->
<!-- Wildcard edge -->
<g id="edge36" class="edge"><title>Store DAScale\nin labnotebook&#45;&gt;Mark sweep as passed</title>
<path fill="none" stroke="#9ecae1" d="M1082.64,-264.487C1086.65,-253.08 1091.44,-239.483 1095.56,-227.805"/>
<polygon fill="#9ecae1" stroke="#9ecae1" points="1098.94,-228.733 1098.96,-218.139 1092.34,-226.408 1098.94,-228.733"/>
</g>
<!-- Mark sweep as failed [1] -->
<g id="node35" class="node"><title>Mark sweep as failed [1]</title>
<ellipse fill="#eff3ff" stroke="#bdd7e7" cx="1559" cy="-108" rx="111.211" ry="18"/>
<text text-anchor="middle" x="1559" y="-104.6" font-family="serif" font-size="13.00" fill="#2171b5">Mark sweep as failed [1]</text>
</g>
<!-- Offset DAScale\nby &#45;50pA&#45;&gt;Mark sweep as failed [1] -->
<!-- Wildcard edge -->
<g id="edge37" class="edge"><title>Offset DAScale\nby &#45;50pA&#45;&gt;Mark sweep as failed [1]</title>
<path fill="none" stroke="#9ecae1" d="M1462.97,-176.521C1482.45,-162.825 1507.26,-145.377 1526.79,-131.649"/>
<polygon fill="#9ecae1" stroke="#9ecae1" points="1528.91,-134.438 1535.07,-125.824 1524.88,-128.712 1528.91,-134.438"/>
</g>
<!-- Write step size of\n&#45;50pA to labnotebook&#45;&gt;Offset DAScale\nby &#45;50pA -->
<!-- Wildcard edge -->
<g id="edge29" class="edge"><title>Write step size of\n&#45;50pA to labnotebook&#45;&gt;Offset DAScale\nby &#45;50pA</title>
<path fill="none" stroke="#9ecae1" d="M1322.62,-265.879C1342.04,-254.257 1365.68,-240.105 1385.92,-227.987"/>
<polygon fill="#9ecae1" stroke="#9ecae1" points="1387.87,-230.896 1394.66,-222.756 1384.28,-224.89 1387.87,-230.896"/>
</g>
<!-- Write step size of\n+10pA to labnotebook -->
<g id="node31" class="node"><title>Write step size of\n+10pA to labnotebook</title>
<ellipse fill="#eff3ff" stroke="#bdd7e7" cx="1773" cy="-290" rx="114.888" ry="25.4118"/>
<text text-anchor="middle" x="1773" y="-293.6" font-family="serif" font-size="13.00" fill="#2171b5">Write step size of</text>
<text text-anchor="middle" x="1773" y="-279.6" font-family="serif" font-size="13.00" fill="#2171b5">+10pA to labnotebook</text>
</g>
<!-- Step Size from labnotebook?&#45;&gt;Write step size of\n+10pA to labnotebook -->
<!-- Wildcard edge -->
<g id="edge32" class="edge"><title>Step Size from labnotebook?&#45;&gt;Write step size of\n+10pA to labnotebook</title>
<path fill="none" stroke="#9ecae1" d="M1653.75,-372.153C1674.69,-357.908 1705.16,-337.17 1730.06,-320.225"/>
<polygon fill="#9ecae1" stroke="#9ecae1" points="1732.31,-322.926 1738.61,-314.406 1728.37,-317.139 1732.31,-322.926"/>
<text text-anchor="middle" x="1723.5" y="-337.5" font-family="sans-serif" font-size="10.00" fill="#3182bd">&#45;50pA</text>
</g>
<!-- Offset DAScale\nby +10pA -->
<g id="node32" class="node"><title>Offset DAScale\nby +10pA</title>
<ellipse fill="#eff3ff" stroke="#bdd7e7" cx="1773" cy="-200" rx="80.415" ry="25.4118"/>
<text text-anchor="middle" x="1773" y="-203.6" font-family="serif" font-size="13.00" fill="#2171b5">Offset DAScale</text>
<text text-anchor="middle" x="1773" y="-189.6" font-family="serif" font-size="13.00" fill="#2171b5">by +10pA</text>
</g>
<!-- Step Size from labnotebook?&#45;&gt;Offset DAScale\nby +10pA -->
<!-- Wildcard edge -->
<g id="edge31" class="edge"><title>Step Size from labnotebook?&#45;&gt;Offset DAScale\nby +10pA</title>
<path fill="none" stroke="#9ecae1" d="M1716.46,-376.775C1785.92,-365.063 1874.93,-344.883 1897,-316 1911.03,-297.636 1909.09,-283.698 1897,-264 1884.79,-244.1 1864.11,-230.245 1843.11,-220.707"/>
<polygon fill="#9ecae1" stroke="#9ecae1" points="1844.36,-217.437 1833.79,-216.751 1841.63,-223.88 1844.36,-217.437"/>
<text text-anchor="middle" x="1923" y="-287.5" font-family="sans-serif" font-size="10.00" fill="#3182bd">+10pA</text>
</g>
<!-- Offset DAScale\nby +100pA -->
<g id="node33" class="node"><title>Offset DAScale\nby +100pA</title>
<ellipse fill="#eff3ff" stroke="#bdd7e7" cx="1559" cy="-290" rx="80.415" ry="25.4118"/>
<text text-anchor="middle" x="1559" y="-293.6" font-family="serif" font-size="13.00" fill="#2171b5">Offset DAScale</text>
<text text-anchor="middle" x="1559" y="-279.6" font-family="serif" font-size="13.00" fill="#2171b5">by +100pA</text>
</g>
<!-- Step Size from labnotebook?&#45;&gt;Offset DAScale\nby +100pA -->
<!-- Wildcard edge -->
<g id="edge33" class="edge"><title>Step Size from labnotebook?&#45;&gt;Offset DAScale\nby +100pA</title>
<path fill="none" stroke="#9ecae1" d="M1616.81,-371.93C1607.27,-358.574 1593.72,-339.612 1582.14,-323.4"/>
<polygon fill="#9ecae1" stroke="#9ecae1" points="1584.96,-321.32 1576.3,-315.217 1579.26,-325.389 1584.96,-321.32"/>
<text text-anchor="middle" x="1618" y="-337.5" font-family="sans-serif" font-size="10.00" fill="#3182bd">+100pA</text>
</g>
<!-- Write step size of\n+10pA to labnotebook&#45;&gt;Offset DAScale\nby +10pA -->
<!-- Wildcard edge -->
<g id="edge34" class="edge"><title>Write step size of\n+10pA to labnotebook&#45;&gt;Offset DAScale\nby +10pA</title>
<path fill="none" stroke="#9ecae1" d="M1773,-264.487C1773,-255.598 1773,-245.38 1773,-235.776"/>
<polygon fill="#9ecae1" stroke="#9ecae1" points="1776.5,-235.687 1773,-225.687 1769.5,-235.687 1776.5,-235.687"/>
</g>
<!-- Offset DAScale\nby +10pA&#45;&gt;Mark sweep as failed [1] -->
<!-- Wildcard edge -->
<g id="edge38" class="edge"><title>Offset DAScale\nby +10pA&#45;&gt;Mark sweep as failed [1]</title>
<path fill="none" stroke="#9ecae1" d="M1726.04,-179.249C1690.46,-164.287 1641.79,-143.818 1606.16,-128.835"/>
<polygon fill="#9ecae1" stroke="#9ecae1" points="1607.52,-125.608 1596.94,-124.958 1604.81,-132.061 1607.52,-125.608"/>
</g>
<!-- Offset DAScale\nby +100pA&#45;&gt;Mark sweep as failed [1] -->
<!-- Wildcard edge -->
<g id="edge39" class="edge"><title>Offset DAScale\nby +100pA&#45;&gt;Mark sweep as failed [1]</title>
<path fill="none" stroke="#9ecae1" d="M1559,-264.349C1559,-230.987 1559,-171.631 1559,-136.744"/>
<polygon fill="#9ecae1" stroke="#9ecae1" points="1562.5,-136.341 1559,-126.341 1555.5,-136.341 1562.5,-136.341"/>
</g>
<!-- Mark sweep as passed&#45;&gt;Skip to end of active set -->
<!-- Wildcard edge -->
<g id="edge35" class="edge"><title>Mark sweep as passed&#45;&gt;Skip to end of active set</title>
<path fill="none" stroke="#9ecae1" d="M1073.13,-182.702C1044.19,-167.902 1001.34,-145.994 969.89,-129.91"/>
<polygon fill="#9ecae1" stroke="#9ecae1" points="971.429,-126.766 960.932,-125.329 968.242,-132.998 971.429,-126.766"/>
</g>
<!-- Mark set as passed if 1 sweep passed,\nas failure otherwise -->
<g id="node37" class="node"><title>Mark set as passed if 1 sweep passed,\nas failure otherwise</title>
<ellipse fill="#eff3ff" stroke="#bdd7e7" cx="1642" cy="-594" rx="186.514" ry="25.4118"/>
<text text-anchor="middle" x="1642" y="-597.6" font-family="serif" font-size="13.00" fill="#2171b5">Mark set as passed if 1 sweep passed,</text>
<text text-anchor="middle" x="1642" y="-583.6" font-family="serif" font-size="13.00" fill="#2171b5">as failure otherwise</text>
</g>
<!-- Post Set Event&#45;&gt;Mark set as passed if 1 sweep passed,\nas failure otherwise -->
<!-- Wildcard edge -->
<g id="edge41" class="edge"><title>Post Set Event&#45;&gt;Mark set as passed if 1 sweep passed,\nas failure otherwise</title>
<path fill="none" stroke="#9ecae1" d="M1600.48,-678.036C1607.19,-664.621 1616.77,-645.462 1625.04,-628.928"/>
<polygon fill="#9ecae1" stroke="#9ecae1" points="1628.38,-630.068 1629.72,-619.559 1622.12,-626.938 1628.38,-630.068"/>
</g>
<!-- Skip to end -->
<g id="node38" class="node"><title>Skip to end</title>
<ellipse fill="#eff3ff" stroke="#bdd7e7" cx="1642" cy="-482" rx="57.2239" ry="18"/>
<text text-anchor="middle" x="1642" y="-478.6" font-family="serif" font-size="13.00" fill="#2171b5">Skip to end</text>
</g>
<!-- Mark set as passed if 1 sweep passed,\nas failure otherwise&#45;&gt;Skip to end -->
<!-- Wildcard edge -->
<g id="edge42" class="edge"><title>Mark set as passed if 1 sweep passed,\nas failure otherwise&#45;&gt;Skip to end</title>
<path fill="none" stroke="#9ecae1" d="M1642,-568.314C1642,-551.027 1642,-527.93 1642,-510.128"/>
<polygon fill="#9ecae1" stroke="#9ecae1" points="1645.5,-510.086 1642,-500.086 1638.5,-510.086 1645.5,-510.086"/>
<text text-anchor="middle" x="1657.5" y="-521.5" font-family="sans-serif" font-size="10.00" fill="#3182bd">Failure</text>
</g>
</g>
</svg>
