<?xml version="1.0" encoding="UTF-8" standalone="no"?>
<!DOCTYPE svg PUBLIC "-//W3C//DTD SVG 1.1//EN"
 "http://www.w3.org/Graphics/SVG/1.1/DTD/svg11.dtd">
<!-- Generated by graphviz version 2.36.0 (20140111.2315)
 -->
<!-- Title: G Pages: 1 -->
<svg width="3022pt" height="962pt"
 viewBox="0.00 0.00 3022.00 962.00" xmlns="http://www.w3.org/2000/svg" xmlns:xlink="http://www.w3.org/1999/xlink">
<g id="graph0" class="graph" transform="scale(1 1) rotate(0) translate(4 958)">
<title>G</title>
<polygon fill="white" stroke="none" points="-4,4 -4,-958 3018,-958 3018,4 -4,4"/>
<g id="clust1" class="cluster"><title>cluster_preDAQ</title>
<polygon fill="none" stroke="none" stroke-width="0.1" points="1656,-150 1656,-888 3006,-888 3006,-150 1656,-150"/>
</g>
<!-- Start DAQ/RA -->
<g id="node1" class="node"><title>Start DAQ/RA</title>
<ellipse fill="#eff3ff" stroke="#bdd7e7" cx="1073" cy="-936" rx="67.3838" ry="18"/>
<text text-anchor="middle" x="1073" y="-932.6" font-family="serif" font-size="13.00" fill="#2171b5">Start DAQ/RA</text>
</g>
<!-- Mid Sweep Event -->
<g id="node2" class="node"><title>Mid Sweep Event</title>
<ellipse fill="#eff3ff" stroke="#bdd7e7" cx="572" cy="-862" rx="82.1769" ry="18"/>
<text text-anchor="middle" x="572" y="-858.6" font-family="serif" font-size="13.00" fill="#2171b5">Mid Sweep Event</text>
</g>
<!-- Start DAQ/RA&#45;&gt;Mid Sweep Event -->
<!-- Wildcard edge -->
<g id="edge1" class="edge"><title>Start DAQ/RA&#45;&gt;Mid Sweep Event</title>
<path fill="none" stroke="#9ecae1" d="M1015.04,-926.67C924.52,-913.661 749.535,-888.514 648.683,-874.02"/>
<polygon fill="#9ecae1" stroke="#9ecae1" points="648.957,-870.524 638.561,-872.566 647.961,-877.453 648.957,-870.524"/>
</g>
<!-- Post DAQ Event -->
<g id="node3" class="node"><title>Post DAQ Event</title>
<ellipse fill="#eff3ff" stroke="#bdd7e7" cx="855" cy="-862" rx="75.2544" ry="18"/>
<text text-anchor="middle" x="855" y="-858.6" font-family="serif" font-size="13.00" fill="#2171b5">Post DAQ Event</text>
</g>
<!-- Start DAQ/RA&#45;&gt;Post DAQ Event -->
<!-- Wildcard edge -->
<g id="edge2" class="edge"><title>Start DAQ/RA&#45;&gt;Post DAQ Event</title>
<path fill="none" stroke="#9ecae1" d="M1032.25,-921.542C996.956,-909.885 945.684,-892.951 907.353,-880.291"/>
<polygon fill="#9ecae1" stroke="#9ecae1" points="908.002,-876.819 897.408,-877.006 905.806,-883.466 908.002,-876.819"/>
</g>
<!-- Post Set Event -->
<g id="node4" class="node"><title>Post Set Event</title>
<ellipse fill="#eff3ff" stroke="#bdd7e7" cx="1073" cy="-862" rx="70.6212" ry="18"/>
<text text-anchor="middle" x="1073" y="-858.6" font-family="serif" font-size="13.00" fill="#2171b5">Post Set Event</text>
</g>
<!-- Start DAQ/RA&#45;&gt;Post Set Event -->
<!-- Wildcard edge -->
<g id="edge4" class="edge"><title>Start DAQ/RA&#45;&gt;Post Set Event</title>
<path fill="none" stroke="#9ecae1" d="M1073,-917.937C1073,-909.807 1073,-899.876 1073,-890.705"/>
<polygon fill="#9ecae1" stroke="#9ecae1" points="1076.5,-890.441 1073,-880.441 1069.5,-890.441 1076.5,-890.441"/>
</g>
<!-- Post Sweep Event -->
<g id="node5" class="node"><title>Post Sweep Event</title>
<ellipse fill="#eff3ff" stroke="#bdd7e7" cx="1313" cy="-862" rx="84.0194" ry="18"/>
<text text-anchor="middle" x="1313" y="-858.6" font-family="serif" font-size="13.00" fill="#2171b5">Post Sweep Event</text>
</g>
<!-- Start DAQ/RA&#45;&gt;Post Sweep Event -->
<!-- Wildcard edge -->
<g id="edge5" class="edge"><title>Start DAQ/RA&#45;&gt;Post Sweep Event</title>
<path fill="none" stroke="#9ecae1" d="M1115.91,-922.128C1155.18,-910.345 1213.57,-892.829 1256.6,-879.919"/>
<polygon fill="#9ecae1" stroke="#9ecae1" points="1257.79,-883.216 1266.37,-876.99 1255.78,-876.512 1257.79,-883.216"/>
</g>
<!-- Prepare DAQ/Pre Set Event -->
<g id="node6" class="node"><title>Prepare DAQ/Pre Set Event</title>
<ellipse fill="#eff3ff" stroke="#bdd7e7" cx="2004" cy="-862" rx="122.318" ry="18"/>
<text text-anchor="middle" x="2004" y="-858.6" font-family="serif" font-size="13.00" fill="#2171b5">Prepare DAQ/Pre Set Event</text>
</g>
<!-- Start DAQ/RA&#45;&gt;Prepare DAQ/Pre Set Event -->
<!-- Wildcard edge -->
<g id="edge3" class="edge"><title>Start DAQ/RA&#45;&gt;Prepare DAQ/Pre Set Event</title>
<path fill="none" stroke="#9ecae1" d="M1136.62,-930.079C1291.49,-918.103 1689.86,-887.295 1888.21,-871.955"/>
<polygon fill="#9ecae1" stroke="#9ecae1" points="1888.68,-875.429 1898.38,-871.169 1888.14,-868.45 1888.68,-875.429"/>
</g>
<!-- Current Sweep passed? -->
<g id="node34" class="node"><title>Current Sweep passed?</title>
<ellipse fill="#eff3ff" stroke="#bdd7e7" cx="424" cy="-788" rx="107.078" ry="18"/>
<text text-anchor="middle" x="424" y="-784.6" font-family="serif" font-size="13.00" fill="#2171b5">Current Sweep passed?</text>
</g>
<!-- Mid Sweep Event&#45;&gt;Current Sweep passed? -->
<!-- Wildcard edge -->
<g id="edge35" class="edge"><title>Mid Sweep Event&#45;&gt;Current Sweep passed?</title>
<path fill="none" stroke="#9ecae1" d="M539.886,-845.377C518.346,-834.898 489.746,-820.984 466.348,-809.602"/>
<polygon fill="#9ecae1" stroke="#9ecae1" points="467.857,-806.444 457.334,-805.216 464.795,-812.738 467.857,-806.444"/>
</g>
<!-- Update Dashboard -->
<g id="node26" class="node"><title>Update Dashboard</title>
<ellipse fill="#eff3ff" stroke="#bdd7e7" cx="637" cy="-788" rx="87.2571" ry="18"/>
<text text-anchor="middle" x="637" y="-784.6" font-family="serif" font-size="13.00" fill="#2171b5">Update Dashboard</text>
</g>
<!-- Post DAQ Event&#45;&gt;Update Dashboard -->
<!-- Wildcard edge -->
<g id="edge27" class="edge"><title>Post DAQ Event&#45;&gt;Update Dashboard</title>
<path fill="none" stroke="#9ecae1" d="M812.709,-847.032C777.928,-835.545 728.424,-819.195 690.82,-806.775"/>
<polygon fill="#9ecae1" stroke="#9ecae1" points="691.636,-803.359 681.043,-803.546 689.441,-810.006 691.636,-803.359"/>
</g>
<!-- Mark set as passed if $NUM_DA_SCALES sweeps passed, as failure otherwise -->
<g id="node27" class="node"><title>Mark set as passed if $NUM_DA_SCALES sweeps passed, as failure otherwise</title>
<ellipse fill="#eff3ff" stroke="#bdd7e7" cx="1073" cy="-788" rx="330.05" ry="18"/>
<text text-anchor="middle" x="1073" y="-784.6" font-family="serif" font-size="13.00" fill="#2171b5">Mark set as passed if $NUM_DA_SCALES sweeps passed, as failure otherwise</text>
</g>
<!-- Post Set Event&#45;&gt;Mark set as passed if $NUM_DA_SCALES sweeps passed, as failure otherwise -->
<!-- Wildcard edge -->
<g id="edge28" class="edge"><title>Post Set Event&#45;&gt;Mark set as passed if $NUM_DA_SCALES sweeps passed, as failure otherwise</title>
<path fill="none" stroke="#9ecae1" d="M1073,-843.937C1073,-835.807 1073,-825.876 1073,-816.705"/>
<polygon fill="#9ecae1" stroke="#9ecae1" points="1076.5,-816.441 1073,-806.441 1069.5,-816.441 1076.5,-816.441"/>
</g>
<!-- Last Sweep passed? -->
<g id="node28" class="node"><title>Last Sweep passed?</title>
<ellipse fill="#eff3ff" stroke="#bdd7e7" cx="1514" cy="-788" rx="92.2855" ry="18"/>
<text text-anchor="middle" x="1514" y="-784.6" font-family="serif" font-size="13.00" fill="#2171b5">Last Sweep passed?</text>
</g>
<!-- Post Sweep Event&#45;&gt;Last Sweep passed? -->
<!-- Wildcard edge -->
<g id="edge29" class="edge"><title>Post Sweep Event&#45;&gt;Last Sweep passed?</title>
<path fill="none" stroke="#9ecae1" d="M1354.16,-846.256C1385.42,-835.06 1428.6,-819.59 1462.21,-807.553"/>
<polygon fill="#9ecae1" stroke="#9ecae1" points="1463.62,-810.763 1471.86,-804.096 1461.26,-804.173 1463.62,-810.763"/>
</g>
<!-- Enable &quot;Autobias&quot; -->
<!-- Wildcard node added automatic in EG. -->
<g id="node8" class="node"><title>Enable &quot;Autobias&quot;</title>
<ellipse fill="#eff3ff" stroke="#bdd7e7" cx="2220" cy="-788" rx="84.9154" ry="18"/>
<text text-anchor="middle" x="2220" y="-784.6" font-family="serif" font-size="13.00" fill="#2171b5">Enable &quot;Autobias&quot;</text>
</g>
<!-- Prepare DAQ/Pre Set Event&#45;&gt;Enable &quot;Autobias&quot; -->
<!-- Wildcard node added automatic in EG. -->
<g id="edge6" class="edge"><title>Prepare DAQ/Pre Set Event&#45;&gt;Enable &quot;Autobias&quot;</title>
<path fill="none" stroke="#9ecae1" d="M2053.18,-845.463C2071.93,-839.473 2093.49,-832.506 2113,-826 2131.17,-819.942 2151.01,-813.134 2168.62,-807.025"/>
<polygon fill="#9ecae1" stroke="#9ecae1" points="2169.85,-810.303 2178.15,-803.713 2167.55,-803.691 2169.85,-810.303"/>
</g>
<!-- Valid Autobias voltage (finite and non&#45;zero) -->
<!-- Wildcard node added automatic in EG. -->
<g id="node10" class="node"><title>Valid Autobias voltage (finite and non&#45;zero)</title>
<ellipse fill="#eff3ff" stroke="#bdd7e7" cx="1884" cy="-788" rx="188.307" ry="18"/>
<text text-anchor="middle" x="1884" y="-784.6" font-family="serif" font-size="13.00" fill="#2171b5">Valid Autobias voltage (finite and non&#45;zero)</text>
</g>
<!-- Prepare DAQ/Pre Set Event&#45;&gt;Valid Autobias voltage (finite and non&#45;zero) -->
<!-- Wildcard node added automatic in EG. -->
<g id="edge12" class="edge"><title>Prepare DAQ/Pre Set Event&#45;&gt;Valid Autobias voltage (finite and non&#45;zero)</title>
<path fill="none" stroke="#9ecae1" d="M1976.17,-844.301C1959.78,-834.466 1938.84,-821.904 1921.06,-811.238"/>
<polygon fill="#9ecae1" stroke="#9ecae1" points="1922.47,-808.002 1912.1,-805.858 1918.87,-814.004 1922.47,-808.002"/>
</g>
<!-- All required analysis parameters present?\n DAScale : numeric wave\n OperationMode: string\nSamplingMultiplier: variable -->
<!-- Wildcard node added automatic in EG. -->
<g id="node15" class="node"><title>All required analysis parameters present?\n DAScale : numeric wave\n OperationMode: string\nSamplingMultiplier: variable</title>
<ellipse fill="#eff3ff" stroke="#bdd7e7" cx="2124" cy="-508" rx="205.153" ry="45.011"/>
<text text-anchor="middle" x="2124" y="-525.6" font-family="serif" font-size="13.00" fill="#2171b5">All required analysis parameters present?</text>
<text text-anchor="middle" x="2124" y="-511.6" font-family="serif" font-size="13.00" fill="#2171b5"> DAScale : numeric wave</text>
<text text-anchor="middle" x="2124" y="-497.6" font-family="serif" font-size="13.00" fill="#2171b5"> OperationMode: string</text>
<text text-anchor="middle" x="2124" y="-483.6" font-family="serif" font-size="13.00" fill="#2171b5">SamplingMultiplier: variable</text>
</g>
<!-- Prepare DAQ/Pre Set Event&#45;&gt;All required analysis parameters present?\n DAScale : numeric wave\n OperationMode: string\nSamplingMultiplier: variable -->
<!-- Wildcard node added automatic in EG. -->
<g id="edge18" class="edge"><title>Prepare DAQ/Pre Set Event&#45;&gt;All required analysis parameters present?\n DAScale : numeric wave\n OperationMode: string\nSamplingMultiplier: variable</title>
<path fill="none" stroke="#9ecae1" d="M2056.91,-845.693C2082.61,-834.686 2108,-816.78 2108,-789 2108,-789 2108,-789 2108,-619 2108,-600.771 2110.18,-581.018 2112.93,-563.347"/>
<polygon fill="#9ecae1" stroke="#9ecae1" points="2116.43,-563.647 2114.6,-553.211 2109.52,-562.507 2116.43,-563.647"/>
</g>
<!-- Enable &quot;TP during ITI&quot; -->
<!-- Wildcard node added automatic in EG. -->
<g id="node7" class="node"><title>Enable &quot;TP during ITI&quot;</title>
<ellipse fill="#eff3ff" stroke="#bdd7e7" cx="2238" cy="-704" rx="103.392" ry="18"/>
<text text-anchor="middle" x="2238" y="-700.6" font-family="serif" font-size="13.00" fill="#2171b5">Enable &quot;TP during ITI&quot;</text>
</g>
<!-- Enable &quot;Multidevice DAQ&quot; -->
<!-- Wildcard node added automatic in EG. -->
<g id="node9" class="node"><title>Enable &quot;Multidevice DAQ&quot;</title>
<ellipse fill="#eff3ff" stroke="#bdd7e7" cx="2379" cy="-620" rx="118.134" ry="18"/>
<text text-anchor="middle" x="2379" y="-616.6" font-family="serif" font-size="13.00" fill="#2171b5">Enable &quot;Multidevice DAQ&quot;</text>
</g>
<!-- Enable &quot;TP during ITI&quot;&#45;&gt;Enable &quot;Multidevice DAQ&quot; -->
<!-- Wildcard node added automatic in EG. -->
<g id="edge8" class="edge"><title>Enable &quot;TP during ITI&quot;&#45;&gt;Enable &quot;Multidevice DAQ&quot;</title>
<path fill="none" stroke="#9ecae1" d="M2266.19,-686.603C2287.86,-674.004 2317.98,-656.487 2341.65,-642.723"/>
<polygon fill="#9ecae1" stroke="#9ecae1" points="2343.49,-645.702 2350.37,-637.649 2339.97,-639.651 2343.49,-645.702"/>
</g>
<!-- Enable &quot;Autobias&quot;&#45;&gt;Enable &quot;TP during ITI&quot; -->
<!-- Wildcard node added automatic in EG. -->
<g id="edge7" class="edge"><title>Enable &quot;Autobias&quot;&#45;&gt;Enable &quot;TP during ITI&quot;</title>
<path fill="none" stroke="#9ecae1" d="M2223.73,-770.01C2226.13,-759.088 2229.29,-744.657 2232.04,-732.167"/>
<polygon fill="#9ecae1" stroke="#9ecae1" points="2235.49,-732.769 2234.21,-722.251 2228.65,-731.268 2235.49,-732.769"/>
</g>
<!-- Disable &quot;dDAQ&quot;/&quot;oodDAQ&quot; -->
<!-- Wildcard node added automatic in EG. -->
<g id="node11" class="node"><title>Disable &quot;dDAQ&quot;/&quot;oodDAQ&quot;</title>
<ellipse fill="#eff3ff" stroke="#bdd7e7" cx="2664" cy="-508" rx="118.134" ry="18"/>
<text text-anchor="middle" x="2664" y="-504.6" font-family="serif" font-size="13.00" fill="#2171b5">Disable &quot;dDAQ&quot;/&quot;oodDAQ&quot;</text>
</g>
<!-- Enable &quot;Multidevice DAQ&quot;&#45;&gt;Disable &quot;dDAQ&quot;/&quot;oodDAQ&quot; -->
<!-- Wildcard node added automatic in EG. -->
<g id="edge9" class="edge"><title>Enable &quot;Multidevice DAQ&quot;&#45;&gt;Disable &quot;dDAQ&quot;/&quot;oodDAQ&quot;</title>
<path fill="none" stroke="#9ecae1" d="M2420.44,-603.005C2471.41,-583.331 2557.93,-549.938 2612.95,-528.702"/>
<polygon fill="#9ecae1" stroke="#9ecae1" points="2614.44,-531.88 2622.51,-525.014 2611.92,-525.35 2614.44,-531.88"/>
</g>
<!-- Check if no TTL channels are active -->
<!-- Wildcard node added automatic in EG. -->
<g id="node14" class="node"><title>Check if no TTL channels are active</title>
<ellipse fill="#eff3ff" stroke="#bdd7e7" cx="1847" cy="-704" rx="159.274" ry="18"/>
<text text-anchor="middle" x="1847" y="-700.6" font-family="serif" font-size="13.00" fill="#2171b5">Check if no TTL channels are active</text>
</g>
<!-- Valid Autobias voltage (finite and non&#45;zero)&#45;&gt;Check if no TTL channels are active -->
<!-- Wildcard node added automatic in EG. -->
<g id="edge13" class="edge"><title>Valid Autobias voltage (finite and non&#45;zero)&#45;&gt;Check if no TTL channels are active</title>
<path fill="none" stroke="#9ecae1" d="M1876.33,-770.01C1871.31,-758.87 1864.63,-744.079 1858.92,-731.42"/>
<polygon fill="#9ecae1" stroke="#9ecae1" points="1862.09,-729.926 1854.78,-722.251 1855.71,-732.805 1862.09,-729.926"/>
</g>
<!-- Enable &quot;Repeated Acquisition&quot; -->
<!-- Wildcard node added automatic in EG. -->
<g id="node12" class="node"><title>Enable &quot;Repeated Acquisition&quot;</title>
<ellipse fill="#eff3ff" stroke="#bdd7e7" cx="2811" cy="-396" rx="137.558" ry="18"/>
<text text-anchor="middle" x="2811" y="-392.6" font-family="serif" font-size="13.00" fill="#2171b5">Enable &quot;Repeated Acquisition&quot;</text>
</g>
<!-- Disable &quot;dDAQ&quot;/&quot;oodDAQ&quot;&#45;&gt;Enable &quot;Repeated Acquisition&quot; -->
<!-- Wildcard node added automatic in EG. -->
<g id="edge10" class="edge"><title>Disable &quot;dDAQ&quot;/&quot;oodDAQ&quot;&#45;&gt;Enable &quot;Repeated Acquisition&quot;</title>
<path fill="none" stroke="#9ecae1" d="M2686.33,-490.293C2711.37,-471.557 2752.13,-441.049 2780.19,-420.051"/>
<polygon fill="#9ecae1" stroke="#9ecae1" points="2782.55,-422.657 2788.46,-413.864 2778.36,-417.053 2782.55,-422.657"/>
</g>
<!-- Enable &quot;Insert TP&quot; -->
<!-- Wildcard node added automatic in EG. -->
<g id="node13" class="node"><title>Enable &quot;Insert TP&quot;</title>
<ellipse fill="#eff3ff" stroke="#bdd7e7" cx="2911" cy="-294" rx="86.3093" ry="18"/>
<text text-anchor="middle" x="2911" y="-290.6" font-family="serif" font-size="13.00" fill="#2171b5">Enable &quot;Insert TP&quot;</text>
</g>
<!-- Enable &quot;Repeated Acquisition&quot;&#45;&gt;Enable &quot;Insert TP&quot; -->
<!-- Wildcard node added automatic in EG. -->
<g id="edge11" class="edge"><title>Enable &quot;Repeated Acquisition&quot;&#45;&gt;Enable &quot;Insert TP&quot;</title>
<path fill="none" stroke="#9ecae1" d="M2827.96,-378.036C2844.15,-361.849 2868.7,-337.299 2886.91,-319.087"/>
<polygon fill="#9ecae1" stroke="#9ecae1" points="2889.69,-321.259 2894.29,-311.713 2884.74,-316.309 2889.69,-321.259"/>
</g>
<!-- Stimset is large enough -->
<!-- Wildcard node added automatic in EG. -->
<g id="node18" class="node"><title>Stimset is large enough</title>
<ellipse fill="#eff3ff" stroke="#bdd7e7" cx="1822" cy="-620" rx="108.472" ry="18"/>
<text text-anchor="middle" x="1822" y="-616.6" font-family="serif" font-size="13.00" fill="#2171b5">Stimset is large enough</text>
</g>
<!-- Check if no TTL channels are active&#45;&gt;Stimset is large enough -->
<!-- Wildcard node added automatic in EG. -->
<g id="edge14" class="edge"><title>Check if no TTL channels are active&#45;&gt;Stimset is large enough</title>
<path fill="none" stroke="#9ecae1" d="M1841.7,-685.61C1838.36,-674.665 1833.99,-660.315 1830.21,-647.919"/>
<polygon fill="#9ecae1" stroke="#9ecae1" points="1833.47,-646.628 1827.21,-638.084 1826.78,-648.67 1833.47,-646.628"/>
</g>
<!-- Get OperationMode -->
<!-- Wildcard node added automatic in EG. -->
<g id="node16" class="node"><title>Get OperationMode</title>
<ellipse fill="#eff3ff" stroke="#bdd7e7" cx="2124" cy="-396" rx="92.3374" ry="18"/>
<text text-anchor="middle" x="2124" y="-392.6" font-family="serif" font-size="13.00" fill="#2171b5">Get OperationMode</text>
</g>
<!-- All required analysis parameters present?\n DAScale : numeric wave\n OperationMode: string\nSamplingMultiplier: variable&#45;&gt;Get OperationMode -->
<!-- Wildcard node added automatic in EG. -->
<g id="edge22" class="edge"><title>All required analysis parameters present?\n DAScale : numeric wave\n OperationMode: string\nSamplingMultiplier: variable&#45;&gt;Get OperationMode</title>
<path fill="none" stroke="#9ecae1" d="M2124,-462.576C2124,-449.653 2124,-435.92 2124,-424.379"/>
<polygon fill="#9ecae1" stroke="#9ecae1" points="2127.5,-424.083 2124,-414.083 2120.5,-424.083 2127.5,-424.083"/>
</g>
<!-- All checks passed -->
<!-- Wildcard node added automatic in EG. -->
<g id="node20" class="node"><title>All checks passed</title>
<ellipse fill="#eff3ff" stroke="#bdd7e7" cx="1748" cy="-294" rx="84.0194" ry="18"/>
<text text-anchor="middle" x="1748" y="-290.6" font-family="serif" font-size="13.00" fill="#2171b5">All checks passed</text>
</g>
<!-- All required analysis parameters present?\n DAScale : numeric wave\n OperationMode: string\nSamplingMultiplier: variable&#45;&gt;All checks passed -->
<!-- Wildcard node added automatic in EG. -->
<g id="edge19" class="edge"><title>All required analysis parameters present?\n DAScale : numeric wave\n OperationMode: string\nSamplingMultiplier: variable&#45;&gt;All checks passed</title>
<path fill="none" stroke="#9ecae1" d="M2071.98,-464.148C2055.36,-449.182 2037.52,-431.683 2023,-414 2011.1,-399.509 2015.85,-389.45 2001,-378 1942.21,-332.666 1911.34,-353.756 1841,-330 1826.26,-325.022 1810.36,-319.207 1795.95,-313.763"/>
<polygon fill="#9ecae1" stroke="#9ecae1" points="1796.84,-310.356 1786.25,-310.069 1794.35,-316.898 1796.84,-310.356"/>
</g>
<!-- Look for an existing and passing rheobase sweep\n within a passing set and\n a pulse duration of more than 500ms -->
<!-- Wildcard node added automatic in EG. -->
<g id="node23" class="node"><title>Look for an existing and passing rheobase sweep\n within a passing set and\n a pulse duration of more than 500ms</title>
<ellipse fill="#eff3ff" stroke="#bdd7e7" cx="2568" cy="-294" rx="237.943" ry="35.2113"/>
<text text-anchor="middle" x="2568" y="-304.6" font-family="serif" font-size="13.00" fill="#2171b5">Look for an existing and passing rheobase sweep</text>
<text text-anchor="middle" x="2568" y="-290.6" font-family="serif" font-size="13.00" fill="#2171b5"> within a passing set and</text>
<text text-anchor="middle" x="2568" y="-276.6" font-family="serif" font-size="13.00" fill="#2171b5"> a pulse duration of more than 500ms</text>
</g>
<!-- Get OperationMode&#45;&gt;Look for an existing and passing rheobase sweep\n within a passing set and\n a pulse duration of more than 500ms -->
<!-- Wildcard node added automatic in EG. -->
<g id="edge23" class="edge"><title>Get OperationMode&#45;&gt;Look for an existing and passing rheobase sweep\n within a passing set and\n a pulse duration of more than 500ms</title>
<path fill="none" stroke="#9ecae1" d="M2182.05,-381.927C2244.68,-367.82 2346.65,-344.854 2430.05,-326.07"/>
<polygon fill="#9ecae1" stroke="#9ecae1" points="2430.88,-329.471 2439.87,-323.859 2429.34,-322.642 2430.88,-329.471"/>
<text text-anchor="middle" x="2333.5" y="-351.5" font-family="sans-serif" font-size="10.00" fill="#3182bd">Supra</text>
</g>
<!-- Use the DAScale values from the analysis parameters -->
<!-- Wildcard node added automatic in EG. -->
<g id="node25" class="node"><title>Use the DAScale values from the analysis parameters</title>
<ellipse fill="#eff3ff" stroke="#bdd7e7" cx="2081" cy="-294" rx="231.29" ry="18"/>
<text text-anchor="middle" x="2081" y="-290.6" font-family="serif" font-size="13.00" fill="#2171b5">Use the DAScale values from the analysis parameters</text>
</g>
<!-- Get OperationMode&#45;&gt;Use the DAScale values from the analysis parameters -->
<!-- Wildcard node added automatic in EG. -->
<g id="edge26" class="edge"><title>Get OperationMode&#45;&gt;Use the DAScale values from the analysis parameters</title>
<path fill="none" stroke="#9ecae1" d="M2099.07,-378.653C2093.09,-373.445 2087.44,-367.149 2084,-360 2078.42,-348.429 2077.21,-334.315 2077.58,-322.199"/>
<polygon fill="#9ecae1" stroke="#9ecae1" points="2081.08,-322.391 2078.25,-312.181 2074.09,-321.926 2081.08,-322.391"/>
<text text-anchor="middle" x="2093.5" y="-351.5" font-family="sans-serif" font-size="10.00" fill="#3182bd">Sub</text>
</g>
<!-- Check if only one headstage is active -->
<!-- Wildcard node added automatic in EG. -->
<g id="node17" class="node"><title>Check if only one headstage is active</title>
<ellipse fill="#eff3ff" stroke="#bdd7e7" cx="1828" cy="-396" rx="164.354" ry="18"/>
<text text-anchor="middle" x="1828" y="-392.6" font-family="serif" font-size="13.00" fill="#2171b5">Check if only one headstage is active</text>
</g>
<!-- Check if only one headstage is active&#45;&gt;All checks passed -->
<!-- Wildcard node added automatic in EG. -->
<g id="edge17" class="edge"><title>Check if only one headstage is active&#45;&gt;All checks passed</title>
<path fill="none" stroke="#9ecae1" d="M1814.43,-378.036C1801.67,-362.09 1782.42,-338.029 1767.92,-319.905"/>
<polygon fill="#9ecae1" stroke="#9ecae1" points="1770.62,-317.669 1761.64,-312.047 1765.15,-322.042 1770.62,-317.669"/>
</g>
<!-- Check if mode is IC -->
<!-- Wildcard node added automatic in EG. -->
<g id="node19" class="node"><title>Check if mode is IC</title>
<ellipse fill="#eff3ff" stroke="#bdd7e7" cx="1810" cy="-508" rx="89.9952" ry="18"/>
<text text-anchor="middle" x="1810" y="-504.6" font-family="serif" font-size="13.00" fill="#2171b5">Check if mode is IC</text>
</g>
<!-- Stimset is large enough&#45;&gt;Check if mode is IC -->
<!-- Wildcard node added automatic in EG. -->
<g id="edge15" class="edge"><title>Stimset is large enough&#45;&gt;Check if mode is IC</title>
<path fill="none" stroke="#9ecae1" d="M1820.12,-601.812C1818.21,-584.215 1815.19,-556.607 1812.95,-536.071"/>
<polygon fill="#9ecae1" stroke="#9ecae1" points="1816.43,-535.628 1811.86,-526.067 1809.47,-536.387 1816.43,-535.628"/>
</g>
<!-- Check if mode is IC&#45;&gt;Check if only one headstage is active -->
<!-- Wildcard node added automatic in EG. -->
<g id="edge16" class="edge"><title>Check if mode is IC&#45;&gt;Check if only one headstage is active</title>
<path fill="none" stroke="#9ecae1" d="M1812.81,-489.812C1815.69,-472.215 1820.21,-444.607 1823.57,-424.071"/>
<polygon fill="#9ecae1" stroke="#9ecae1" points="1827.05,-424.501 1825.21,-414.067 1820.14,-423.37 1827.05,-424.501"/>
</g>
<!-- Use first DAScale value -->
<!-- Wildcard node added automatic in EG. -->
<g id="node21" class="node"><title>Use first DAScale value</title>
<ellipse fill="#eff3ff" stroke="#bdd7e7" cx="1771" cy="-184" rx="106.131" ry="18"/>
<text text-anchor="middle" x="1771" y="-180.6" font-family="serif" font-size="13.00" fill="#2171b5">Use first DAScale value</text>
</g>
<!-- All checks passed&#45;&gt;Use first DAScale value -->
<!-- Wildcard node added automatic in EG. -->
<g id="edge20" class="edge"><title>All checks passed&#45;&gt;Use first DAScale value</title>
<path fill="none" stroke="#9ecae1" d="M1751.7,-275.648C1755.33,-258.564 1760.94,-232.215 1765.18,-212.319"/>
<polygon fill="#9ecae1" stroke="#9ecae1" points="1768.65,-212.819 1767.31,-202.309 1761.81,-211.361 1768.65,-212.819"/>
<text text-anchor="middle" x="1770" y="-231.5" font-family="sans-serif" font-size="10.00" fill="#3182bd">Yes</text>
</g>
<!-- Abort -->
<!-- Wildcard node added automatic in EG. -->
<g id="node22" class="node"><title>Abort</title>
<ellipse fill="#eff3ff" stroke="#bdd7e7" cx="2076" cy="-184" rx="33.2184" ry="18"/>
<text text-anchor="middle" x="2076" y="-180.6" font-family="serif" font-size="13.00" fill="#2171b5">Abort</text>
</g>
<!-- All checks passed&#45;&gt;Abort -->
<!-- Wildcard node added automatic in EG. -->
<g id="edge21" class="edge"><title>All checks passed&#45;&gt;Abort</title>
<path fill="none" stroke="#9ecae1" d="M1786.73,-277.843C1803.36,-271.488 1823.05,-264.159 1841,-258 1909.7,-234.423 1990.81,-209.963 2037.53,-196.193"/>
<polygon fill="#9ecae1" stroke="#9ecae1" points="2038.64,-199.516 2047.25,-193.339 2036.66,-192.8 2038.64,-199.516"/>
<text text-anchor="middle" x="1938" y="-231.5" font-family="sans-serif" font-size="10.00" fill="#3182bd">No</text>
</g>
<!-- Look for an existing and passing rheobase sweep\n within a passing set and\n a pulse duration of more than 500ms&#45;&gt;Abort -->
<!-- Wildcard node added automatic in EG. -->
<g id="edge24" class="edge"><title>Look for an existing and passing rheobase sweep\n within a passing set and\n a pulse duration of more than 500ms&#45;&gt;Abort</title>
<path fill="none" stroke="#9ecae1" d="M2437.44,-264.342C2330.49,-240.863 2185.87,-209.118 2116.46,-193.882"/>
<polygon fill="#9ecae1" stroke="#9ecae1" points="2116.9,-190.395 2106.38,-191.669 2115.4,-197.232 2116.9,-190.395"/>
<text text-anchor="middle" x="2346" y="-231.5" font-family="sans-serif" font-size="10.00" fill="#3182bd">Not found</text>
</g>
<!-- Use the DAScale value of that sweep\n as offset to the DAScale values from the analysis parameters -->
<!-- Wildcard node added automatic in EG. -->
<g id="node24" class="node"><title>Use the DAScale value of that sweep\n as offset to the DAScale values from the analysis parameters</title>
<ellipse fill="#eff3ff" stroke="#bdd7e7" cx="2568" cy="-184" rx="294.296" ry="25.4118"/>
<text text-anchor="middle" x="2568" y="-187.6" font-family="serif" font-size="13.00" fill="#2171b5">Use the DAScale value of that sweep</text>
<text text-anchor="middle" x="2568" y="-173.6" font-family="serif" font-size="13.00" fill="#2171b5"> as offset to the DAScale values from the analysis parameters</text>
</g>
<!-- Look for an existing and passing rheobase sweep\n within a passing set and\n a pulse duration of more than 500ms&#45;&gt;Use the DAScale value of that sweep\n as offset to the DAScale values from the analysis parameters -->
<!-- Wildcard node added automatic in EG. -->
<g id="edge25" class="edge"><title>Look for an existing and passing rheobase sweep\n within a passing set and\n a pulse duration of more than 500ms&#45;&gt;Use the DAScale value of that sweep\n as offset to the DAScale values from the analysis parameters</title>
<path fill="none" stroke="#9ecae1" d="M2568,-258.531C2568,-246.088 2568,-232.046 2568,-219.593"/>
<polygon fill="#9ecae1" stroke="#9ecae1" points="2571.5,-219.575 2568,-209.575 2564.5,-219.576 2571.5,-219.575"/>
<text text-anchor="middle" x="2583" y="-231.5" font-family="sans-serif" font-size="10.00" fill="#3182bd">Found</text>
</g>
<!-- Check if $NUM_DA_SCALES sweeps passed from RA cycle -->
<g id="node29" class="node"><title>Check if $NUM_DA_SCALES sweeps passed from RA cycle</title>
<ellipse fill="#eff3ff" stroke="#bdd7e7" cx="1111" cy="-704" rx="250.164" ry="18"/>
<text text-anchor="middle" x="1111" y="-700.6" font-family="serif" font-size="13.00" fill="#2171b5">Check if $NUM_DA_SCALES sweeps passed from RA cycle</text>
</g>
<!-- Last Sweep passed?&#45;&gt;Check if $NUM_DA_SCALES sweeps passed from RA cycle -->
<!-- Wildcard edge -->
<g id="edge30" class="edge"><title>Last Sweep passed?&#45;&gt;Check if $NUM_DA_SCALES sweeps passed from RA cycle</title>
<path fill="none" stroke="#9ecae1" d="M1452.35,-774.457C1385.14,-760.781 1276.97,-738.771 1200.43,-723.198"/>
<polygon fill="#9ecae1" stroke="#9ecae1" points="1200.82,-719.704 1190.32,-721.14 1199.42,-726.564 1200.82,-719.704"/>
<text text-anchor="middle" x="1345" y="-743.5" font-family="sans-serif" font-size="10.00" fill="#3182bd">Yes</text>
</g>
<!-- Check if the Set can still pass -->
<g id="node33" class="node"><title>Check if the Set can still pass</title>
<ellipse fill="#eff3ff" stroke="#bdd7e7" cx="1514" cy="-704" rx="133.373" ry="18"/>
<text text-anchor="middle" x="1514" y="-700.6" font-family="serif" font-size="13.00" fill="#2171b5">Check if the Set can still pass</text>
</g>
<!-- Last Sweep passed?&#45;&gt;Check if the Set can still pass -->
<!-- Wildcard edge -->
<g id="edge33" class="edge"><title>Last Sweep passed?&#45;&gt;Check if the Set can still pass</title>
<path fill="none" stroke="#9ecae1" d="M1514,-769.61C1514,-758.774 1514,-744.601 1514,-732.291"/>
<polygon fill="#9ecae1" stroke="#9ecae1" points="1517.5,-732.084 1514,-722.084 1510.5,-732.084 1517.5,-732.084"/>
<text text-anchor="middle" x="1521" y="-743.5" font-family="sans-serif" font-size="10.00" fill="#3182bd">No</text>
</g>
<!-- Skip to end of active set -->
<g id="node30" class="node"><title>Skip to end of active set</title>
<ellipse fill="#eff3ff" stroke="#bdd7e7" cx="1237" cy="-620" rx="111.263" ry="18"/>
<text text-anchor="middle" x="1237" y="-616.6" font-family="serif" font-size="13.00" fill="#2171b5">Skip to end of active set</text>
</g>
<!-- Check if $NUM_DA_SCALES sweeps passed from RA cycle&#45;&gt;Skip to end of active set -->
<!-- Wildcard edge -->
<g id="edge31" class="edge"><title>Check if $NUM_DA_SCALES sweeps passed from RA cycle&#45;&gt;Skip to end of active set</title>
<path fill="none" stroke="#9ecae1" d="M1137.11,-686.01C1156.16,-673.613 1182.15,-656.696 1202.85,-643.226"/>
<polygon fill="#9ecae1" stroke="#9ecae1" points="1204.88,-646.076 1211.36,-637.688 1201.07,-640.209 1204.88,-646.076"/>
<text text-anchor="middle" x="1190" y="-659.5" font-family="sans-serif" font-size="10.00" fill="#3182bd">Yes</text>
</g>
<!-- Use next DAScale value -->
<g id="node32" class="node"><title>Use next DAScale value</title>
<ellipse fill="#eff3ff" stroke="#bdd7e7" cx="1000" cy="-620" rx="108.025" ry="18"/>
<text text-anchor="middle" x="1000" y="-616.6" font-family="serif" font-size="13.00" fill="#2171b5">Use next DAScale value</text>
</g>
<!-- Check if $NUM_DA_SCALES sweeps passed from RA cycle&#45;&gt;Use next DAScale value -->
<!-- Wildcard edge -->
<g id="edge32" class="edge"><title>Check if $NUM_DA_SCALES sweeps passed from RA cycle&#45;&gt;Use next DAScale value</title>
<path fill="none" stroke="#9ecae1" d="M1088,-686.01C1071.52,-673.835 1049.14,-657.299 1031.07,-643.951"/>
<polygon fill="#9ecae1" stroke="#9ecae1" points="1032.71,-640.815 1022.59,-637.688 1028.55,-646.445 1032.71,-640.815"/>
<text text-anchor="middle" x="1070" y="-659.5" font-family="sans-serif" font-size="10.00" fill="#3182bd">No</text>
</g>
<!-- Skip to end -->
<g id="node31" class="node"><title>Skip to end</title>
<ellipse fill="#eff3ff" stroke="#bdd7e7" cx="1514" cy="-620" rx="57.2239" ry="18"/>
<text text-anchor="middle" x="1514" y="-616.6" font-family="serif" font-size="13.00" fill="#2171b5">Skip to end</text>
</g>
<!-- Check if the Set can still pass&#45;&gt;Skip to end -->
<!-- Wildcard edge -->
<g id="edge34" class="edge"><title>Check if the Set can still pass&#45;&gt;Skip to end</title>
<path fill="none" stroke="#9ecae1" d="M1514,-685.61C1514,-674.774 1514,-660.601 1514,-648.291"/>
<polygon fill="#9ecae1" stroke="#9ecae1" points="1517.5,-648.084 1514,-638.084 1510.5,-648.084 1517.5,-648.084"/>
<text text-anchor="middle" x="1521" y="-659.5" font-family="sans-serif" font-size="10.00" fill="#3182bd">No</text>
</g>
<!-- Grab next completely acquired chunk (500ms) of stimset baseline -->
<g id="node35" class="node"><title>Grab next completely acquired chunk (500ms) of stimset baseline</title>
<ellipse fill="#eff3ff" stroke="#bdd7e7" cx="424" cy="-704" rx="283.882" ry="18"/>
<text text-anchor="middle" x="424" y="-700.6" font-family="serif" font-size="13.00" fill="#2171b5">Grab next completely acquired chunk (500ms) of stimset baseline</text>
</g>
<!-- Current Sweep passed?&#45;&gt;Grab next completely acquired chunk (500ms) of stimset baseline -->
<!-- Wildcard edge -->
<g id="edge36" class="edge"><title>Current Sweep passed?&#45;&gt;Grab next completely acquired chunk (500ms) of stimset baseline</title>
<path fill="none" stroke="#9ecae1" d="M424,-769.61C424,-758.774 424,-744.601 424,-732.291"/>
<polygon fill="#9ecae1" stroke="#9ecae1" points="427.5,-732.084 424,-722.084 420.5,-732.084 427.5,-732.084"/>
<text text-anchor="middle" x="431" y="-743.5" font-family="sans-serif" font-size="10.00" fill="#3182bd">No</text>
</g>
<!-- Chunk already evaluated? -->
<g id="node37" class="node"><title>Chunk already evaluated?</title>
<ellipse fill="#eff3ff" stroke="#bdd7e7" cx="493" cy="-620" rx="118.185" ry="18"/>
<text text-anchor="middle" x="493" y="-616.6" font-family="serif" font-size="13.00" fill="#2171b5">Chunk already evaluated?</text>
</g>
<!-- Grab next completely acquired chunk (500ms) of stimset baseline&#45;&gt;Chunk already evaluated? -->
<!-- Wildcard edge -->
<g id="edge37" class="edge"><title>Grab next completely acquired chunk (500ms) of stimset baseline&#45;&gt;Chunk already evaluated?</title>
<path fill="none" stroke="#9ecae1" d="M420.297,-685.697C419.224,-676.244 419.552,-664.722 425,-656 428.245,-650.806 432.528,-646.347 437.369,-642.528"/>
<polygon fill="#9ecae1" stroke="#9ecae1" points="439.659,-645.203 445.961,-636.686 435.723,-639.415 439.659,-645.203"/>
<text text-anchor="middle" x="448" y="-659.5" font-family="sans-serif" font-size="10.00" fill="#3182bd">Have one</text>
</g>
<!-- Last chunk? -->
<g id="node38" class="node"><title>Last chunk?</title>
<ellipse fill="#eff3ff" stroke="#bdd7e7" cx="296" cy="-620" rx="60.4609" ry="18"/>
<text text-anchor="middle" x="296" y="-616.6" font-family="serif" font-size="13.00" fill="#2171b5">Last chunk?</text>
</g>
<!-- Grab next completely acquired chunk (500ms) of stimset baseline&#45;&gt;Last chunk? -->
<!-- Wildcard edge -->
<g id="edge38" class="edge"><title>Grab next completely acquired chunk (500ms) of stimset baseline&#45;&gt;Last chunk?</title>
<path fill="none" stroke="#9ecae1" d="M397.478,-686.01C377.527,-673.228 350.073,-655.64 328.751,-641.981"/>
<polygon fill="#9ecae1" stroke="#9ecae1" points="330.631,-639.029 320.323,-636.582 326.855,-644.923 330.631,-639.029"/>
<text text-anchor="middle" x="390" y="-659.5" font-family="sans-serif" font-size="10.00" fill="#3182bd">None left</text>
</g>
<!-- Baseline chunk type -->
<g id="node36" class="node"><title>Baseline chunk type</title>
<ellipse fill="#eff3ff" stroke="#bdd7e7" cx="493" cy="-508" rx="94.1288" ry="18"/>
<text text-anchor="middle" x="493" y="-504.6" font-family="serif" font-size="13.00" fill="#2171b5">Baseline chunk type</text>
</g>
<!-- Check RMS short -->
<g id="node40" class="node"><title>Check RMS short</title>
<ellipse fill="#eff3ff" stroke="#bdd7e7" cx="655" cy="-396" rx="82.1769" ry="18"/>
<text text-anchor="middle" x="655" y="-392.6" font-family="serif" font-size="13.00" fill="#2171b5">Check RMS short</text>
</g>
<!-- Baseline chunk type&#45;&gt;Check RMS short -->
<!-- Wildcard edge -->
<g id="edge42" class="edge"><title>Baseline chunk type&#45;&gt;Check RMS short</title>
<path fill="none" stroke="#9ecae1" d="M517.253,-490.532C545.33,-471.467 591.688,-439.99 622.775,-418.881"/>
<polygon fill="#9ecae1" stroke="#9ecae1" points="624.803,-421.735 631.11,-413.222 620.871,-415.944 624.803,-421.735"/>
<text text-anchor="middle" x="625.5" y="-435.5" font-family="sans-serif" font-size="10.00" fill="#3182bd">pre pulse</text>
</g>
<!-- Check target voltage [2] -->
<g id="node43" class="node"><title>Check target voltage [2]</title>
<ellipse fill="#eff3ff" stroke="#bdd7e7" cx="442" cy="-396" rx="112.158" ry="18"/>
<text text-anchor="middle" x="442" y="-392.6" font-family="serif" font-size="13.00" fill="#2171b5">Check target voltage [2]</text>
</g>
<!-- Baseline chunk type&#45;&gt;Check target voltage [2] -->
<!-- Wildcard edge -->
<g id="edge50" class="edge"><title>Baseline chunk type&#45;&gt;Check target voltage [2]</title>
<path fill="none" stroke="#9ecae1" d="M485.031,-489.812C476.76,-471.973 463.719,-443.845 454.16,-423.227"/>
<polygon fill="#9ecae1" stroke="#9ecae1" points="457.294,-421.667 449.913,-414.067 450.944,-424.611 457.294,-421.667"/>
<text text-anchor="middle" x="488" y="-435.5" font-family="sans-serif" font-size="10.00" fill="#3182bd">post pulse</text>
</g>
<!-- Chunk already evaluated?&#45;&gt;Grab next completely acquired chunk (500ms) of stimset baseline -->
<!-- Wildcard edge -->
<g id="edge40" class="edge"><title>Chunk already evaluated?&#45;&gt;Grab next completely acquired chunk (500ms) of stimset baseline</title>
<path fill="none" stroke="#9ecae1" d="M487.293,-638.246C483.617,-647.68 478.175,-659.204 471,-668 467.708,-672.035 463.854,-675.856 459.793,-679.387"/>
<polygon fill="#9ecae1" stroke="#9ecae1" points="457.421,-676.804 451.825,-685.8 461.81,-682.257 457.421,-676.804"/>
<text text-anchor="middle" x="487" y="-659.5" font-family="sans-serif" font-size="10.00" fill="#3182bd">Yes</text>
</g>
<!-- Chunk already evaluated?&#45;&gt;Baseline chunk type -->
<!-- Wildcard edge -->
<g id="edge41" class="edge"><title>Chunk already evaluated?&#45;&gt;Baseline chunk type</title>
<path fill="none" stroke="#9ecae1" d="M493,-601.812C493,-584.215 493,-556.607 493,-536.071"/>
<polygon fill="#9ecae1" stroke="#9ecae1" points="496.5,-536.067 493,-526.067 489.5,-536.067 496.5,-536.067"/>
<text text-anchor="middle" x="500" y="-575.5" font-family="sans-serif" font-size="10.00" fill="#3182bd">No</text>
</g>
<!-- Mark Sweep as failed -->
<g id="node39" class="node"><title>Mark Sweep as failed</title>
<ellipse fill="#eff3ff" stroke="#bdd7e7" cx="401" cy="-184" rx="98.3121" ry="18"/>
<text text-anchor="middle" x="401" y="-180.6" font-family="serif" font-size="13.00" fill="#2171b5">Mark Sweep as failed</text>
</g>
<!-- Last chunk?&#45;&gt;Mark Sweep as failed -->
<!-- Wildcard edge -->
<g id="edge39" class="edge"><title>Last chunk?&#45;&gt;Mark Sweep as failed</title>
<path fill="none" stroke="#9ecae1" d="M294.218,-601.999C290.556,-562.119 284.172,-459.756 305,-378 321.283,-314.083 360.649,-246.695 383.596,-210.912"/>
<polygon fill="#9ecae1" stroke="#9ecae1" points="386.808,-212.392 389.326,-202.101 380.94,-208.576 386.808,-212.392"/>
<text text-anchor="middle" x="313" y="-393.5" font-family="sans-serif" font-size="10.00" fill="#3182bd">Yes</text>
</g>
<!-- Early Sweep stop -->
<g id="node48" class="node"><title>Early Sweep stop</title>
<ellipse fill="#eff3ff" stroke="#bdd7e7" cx="334" cy="-102" rx="82.1769" ry="18"/>
<text text-anchor="middle" x="334" y="-98.6" font-family="serif" font-size="13.00" fill="#2171b5">Early Sweep stop</text>
</g>
<!-- Mark Sweep as failed&#45;&gt;Early Sweep stop -->
<!-- Wildcard edge -->
<g id="edge55" class="edge"><title>Mark Sweep as failed&#45;&gt;Early Sweep stop</title>
<path fill="none" stroke="#9ecae1" d="M386.791,-166.034C377.464,-154.897 365.11,-140.147 354.699,-127.715"/>
<polygon fill="#9ecae1" stroke="#9ecae1" points="357.292,-125.361 348.188,-119.941 351.926,-129.855 357.292,-125.361"/>
</g>
<!-- Check RMS short&#45;&gt;Mark Sweep as failed -->
<!-- Wildcard edge -->
<g id="edge44" class="edge"><title>Check RMS short&#45;&gt;Mark Sweep as failed</title>
<path fill="none" stroke="#9ecae1" d="M612.387,-380.514C583.843,-369.494 546.431,-352.406 518,-330 474.529,-295.741 436.899,-242.5 416.723,-210.957"/>
<polygon fill="#9ecae1" stroke="#9ecae1" points="419.558,-208.89 411.27,-202.29 413.633,-212.618 419.558,-208.89"/>
<text text-anchor="middle" x="532" y="-291.5" font-family="sans-serif" font-size="10.00" fill="#3182bd">Failed</text>
</g>
<!-- Check RMS long -->
<g id="node41" class="node"><title>Check RMS long</title>
<ellipse fill="#eff3ff" stroke="#bdd7e7" cx="633" cy="-294" rx="77.9925" ry="18"/>
<text text-anchor="middle" x="633" y="-290.6" font-family="serif" font-size="13.00" fill="#2171b5">Check RMS long</text>
</g>
<!-- Check RMS short&#45;&gt;Check RMS long -->
<!-- Wildcard edge -->
<g id="edge43" class="edge"><title>Check RMS short&#45;&gt;Check RMS long</title>
<path fill="none" stroke="#9ecae1" d="M651.168,-377.581C647.824,-362.382 642.915,-340.067 639.042,-322.464"/>
<polygon fill="#9ecae1" stroke="#9ecae1" points="642.355,-321.233 636.788,-312.219 635.519,-322.738 642.355,-321.233"/>
<text text-anchor="middle" x="665" y="-351.5" font-family="sans-serif" font-size="10.00" fill="#3182bd">Passed</text>
</g>
<!-- Check RMS long&#45;&gt;Mark Sweep as failed -->
<!-- Wildcard edge -->
<g id="edge45" class="edge"><title>Check RMS long&#45;&gt;Mark Sweep as failed</title>
<path fill="none" stroke="#9ecae1" d="M599.76,-277.526C558.937,-258.522 489.579,-226.235 444.536,-205.267"/>
<polygon fill="#9ecae1" stroke="#9ecae1" points="445.855,-202.02 435.312,-200.973 442.901,-208.366 445.855,-202.02"/>
<text text-anchor="middle" x="531" y="-231.5" font-family="sans-serif" font-size="10.00" fill="#3182bd">Failed</text>
</g>
<!-- Check target voltage [1] -->
<g id="node42" class="node"><title>Check target voltage [1]</title>
<ellipse fill="#eff3ff" stroke="#bdd7e7" cx="633" cy="-184" rx="112.158" ry="18"/>
<text text-anchor="middle" x="633" y="-180.6" font-family="serif" font-size="13.00" fill="#2171b5">Check target voltage [1]</text>
</g>
<!-- Check RMS long&#45;&gt;Check target voltage [1] -->
<!-- Wildcard edge -->
<g id="edge46" class="edge"><title>Check RMS long&#45;&gt;Check target voltage [1]</title>
<path fill="none" stroke="#9ecae1" d="M633,-275.648C633,-258.564 633,-232.215 633,-212.319"/>
<polygon fill="#9ecae1" stroke="#9ecae1" points="636.5,-212.309 633,-202.309 629.5,-212.309 636.5,-212.309"/>
<text text-anchor="middle" x="650" y="-231.5" font-family="sans-serif" font-size="10.00" fill="#3182bd">Passed</text>
</g>
<!-- Mark chunk as passed/failed [1] -->
<g id="node45" class="node"><title>Mark chunk as passed/failed [1]</title>
<ellipse fill="#eff3ff" stroke="#bdd7e7" cx="637" cy="-102" rx="142.139" ry="18"/>
<text text-anchor="middle" x="637" y="-98.6" font-family="serif" font-size="13.00" fill="#2171b5">Mark chunk as passed/failed [1]</text>
</g>
<!-- Check target voltage [1]&#45;&gt;Mark chunk as passed/failed [1] -->
<!-- Wildcard edge -->
<g id="edge47" class="edge"><title>Check target voltage [1]&#45;&gt;Mark chunk as passed/failed [1]</title>
<path fill="none" stroke="#9ecae1" d="M633.868,-165.641C634.385,-155.297 635.053,-141.941 635.639,-130.221"/>
<polygon fill="#9ecae1" stroke="#9ecae1" points="639.144,-130.212 636.147,-120.05 632.152,-129.863 639.144,-130.212"/>
</g>
<!-- Mark chunk as passed/failed [2] -->
<g id="node47" class="node"><title>Mark chunk as passed/failed [2]</title>
<ellipse fill="#eff3ff" stroke="#bdd7e7" cx="142" cy="-294" rx="142.139" ry="18"/>
<text text-anchor="middle" x="142" y="-290.6" font-family="serif" font-size="13.00" fill="#2171b5">Mark chunk as passed/failed [2]</text>
</g>
<!-- Check target voltage [2]&#45;&gt;Mark chunk as passed/failed [2] -->
<!-- Wildcard edge -->
<g id="edge51" class="edge"><title>Check target voltage [2]&#45;&gt;Mark chunk as passed/failed [2]</title>
<path fill="none" stroke="#9ecae1" d="M395.782,-379.594C343.034,-362.011 256.7,-333.233 199.611,-314.204"/>
<polygon fill="#9ecae1" stroke="#9ecae1" points="200.602,-310.845 190.008,-311.003 198.388,-317.486 200.602,-310.845"/>
</g>
<!-- Mark Sweep as passed -->
<g id="node44" class="node"><title>Mark Sweep as passed</title>
<ellipse fill="#eff3ff" stroke="#bdd7e7" cx="175" cy="-184" rx="103.392" ry="18"/>
<text text-anchor="middle" x="175" y="-180.6" font-family="serif" font-size="13.00" fill="#2171b5">Mark Sweep as passed</text>
</g>
<!-- Mark Sweep as passed&#45;&gt;Early Sweep stop -->
<!-- Wildcard edge -->
<g id="edge54" class="edge"><title>Mark Sweep as passed&#45;&gt;Early Sweep stop</title>
<path fill="none" stroke="#9ecae1" d="M207.176,-166.811C232.096,-154.273 266.769,-136.827 293.564,-123.345"/>
<polygon fill="#9ecae1" stroke="#9ecae1" points="295.325,-126.377 302.685,-118.756 292.178,-120.124 295.325,-126.377"/>
</g>
<!-- Mark chunk as passed/failed [1]&#45;&gt;Grab next completely acquired chunk (500ms) of stimset baseline -->
<!-- Wildcard edge -->
<g id="edge48" class="edge"><title>Mark chunk as passed/failed [1]&#45;&gt;Grab next completely acquired chunk (500ms) of stimset baseline</title>
<path fill="none" stroke="#9ecae1" d="M707.788,-117.644C740.834,-129.042 773,-148.896 773,-183 773,-621 773,-621 773,-621 773,-657.484 699.808,-677.749 620.46,-688.999"/>
<polygon fill="#9ecae1" stroke="#9ecae1" points="619.685,-685.572 610.25,-690.394 620.632,-692.508 619.685,-685.572"/>
<text text-anchor="middle" x="790" y="-393.5" font-family="sans-serif" font-size="10.00" fill="#3182bd">Passed</text>
</g>
<!-- Early sweep stop, repurpose ITI and add 10s to ITI -->
<g id="node46" class="node"><title>Early sweep stop, repurpose ITI and add 10s to ITI</title>
<ellipse fill="#eff3ff" stroke="#bdd7e7" cx="637" cy="-18" rx="217.393" ry="18"/>
<text text-anchor="middle" x="637" y="-14.6" font-family="serif" font-size="13.00" fill="#2171b5">Early sweep stop, repurpose ITI and add 10s to ITI</text>
</g>
<!-- Mark chunk as passed/failed [1]&#45;&gt;Early sweep stop, repurpose ITI and add 10s to ITI -->
<!-- Wildcard edge -->
<g id="edge49" class="edge"><title>Mark chunk as passed/failed [1]&#45;&gt;Early sweep stop, repurpose ITI and add 10s to ITI</title>
<path fill="none" stroke="#9ecae1" d="M637,-83.6099C637,-72.7743 637,-58.6012 637,-46.2913"/>
<polygon fill="#9ecae1" stroke="#9ecae1" points="640.5,-46.0838 637,-36.0838 633.5,-46.0839 640.5,-46.0838"/>
<text text-anchor="middle" x="651" y="-57.5" font-family="sans-serif" font-size="10.00" fill="#3182bd">Failed</text>
</g>
<!-- Mark chunk as passed/failed [2]&#45;&gt;Grab next completely acquired chunk (500ms) of stimset baseline -->
<!-- Wildcard edge -->
<g id="edge52" class="edge"><title>Mark chunk as passed/failed [2]&#45;&gt;Grab next completely acquired chunk (500ms) of stimset baseline</title>
<path fill="none" stroke="#9ecae1" d="M145.064,-312.279C148.319,-332.164 153,-365.832 153,-395 153,-621 153,-621 153,-621 153,-652.742 221.971,-673.326 290.324,-685.933"/>
<polygon fill="#9ecae1" stroke="#9ecae1" points="289.935,-689.419 300.396,-687.735 291.169,-682.528 289.935,-689.419"/>
<text text-anchor="middle" x="167" y="-505.5" font-family="sans-serif" font-size="10.00" fill="#3182bd">Failed</text>
</g>
<!-- Mark chunk as passed/failed [2]&#45;&gt;Mark Sweep as passed -->
<!-- Wildcard edge -->
<g id="edge53" class="edge"><title>Mark chunk as passed/failed [2]&#45;&gt;Mark Sweep as passed</title>
<path fill="none" stroke="#9ecae1" d="M147.302,-275.648C152.546,-258.486 160.647,-231.972 166.736,-212.045"/>
<polygon fill="#9ecae1" stroke="#9ecae1" points="170.136,-212.895 169.711,-202.309 163.442,-210.85 170.136,-212.895"/>
<text text-anchor="middle" x="179" y="-231.5" font-family="sans-serif" font-size="10.00" fill="#3182bd">Passed</text>
</g>
</g>
</svg>
